<svg width="120" height="120" viewBox="0 0 120 120" fill="none" xmlns="http://www.w3.org/2000/svg">
<rect width="120" height="120" fill="white"/>
<path d="M39.0123 44.1591C39.1297 43.6393 39.8703 43.6393 39.9877 44.1591L41.4635 50.6924C41.5396 51.0293 41.9262 51.1894 42.2182 51.005L47.8815 47.4288C48.332 47.1443 48.8557 47.668 48.5712 48.1185L44.995 53.7818C44.8106 54.0738 44.9707 54.4604 45.3076 54.5365L51.8409 56.0123C52.3607 56.1297 52.3607 56.8703 51.8409 56.9877L45.3076 58.4635C44.9707 58.5396 44.8106 58.9262 44.995 59.2182L48.5712 64.8815C48.8557 65.332 48.332 65.8557 47.8815 65.5712L42.2182 61.995C41.9262 61.8106 41.5396 61.9707 41.4635 62.3076L39.9877 68.8409C39.8703 69.3607 39.1297 69.3607 39.0123 68.8409L37.5365 62.3076C37.4604 61.9707 37.0738 61.8106 36.7818 61.995L31.1185 65.5712C30.668 65.8557 30.1443 65.332 30.4288 64.8815L34.005 59.2182C34.1894 58.9262 34.0293 58.5396 33.6924 58.4635L27.1591 56.9877C26.6393 56.8703 26.6393 56.1297 27.1591 56.0123L33.6924 54.5365C34.0293 54.4604 34.1894 54.0738 34.005 53.7818L30.4288 48.1185C30.1443 47.668 30.668 47.1443 31.1185 47.4288L36.7818 51.005C37.0738 51.1894 37.4604 51.0293 37.5365 50.6924L39.0123 44.1591Z" fill="#FFF2B8"/>
<path d="M83.0123 92.1591C83.1297 91.6393 83.8703 91.6393 83.9877 92.1591L85.4635 98.6924C85.5396 99.0293 85.9262 99.1894 86.2182 99.005L91.8815 95.4288C92.332 95.1443 92.8557 95.668 92.5712 96.1185L88.995 101.782C88.8106 102.074 88.9707 102.46 89.3076 102.537L95.8409 104.012C96.3607 104.13 96.3607 104.87 95.8409 104.988L89.3076 106.463C88.9707 106.54 88.8106 106.926 88.995 107.218L92.5712 112.881C92.8557 113.332 92.332 113.856 91.8815 113.571L86.2182 109.995C85.9262 109.811 85.5396 109.971 85.4635 110.308L83.9877 116.841C83.8703 117.361 83.1297 117.361 83.0123 116.841L81.5365 110.308C81.4604 109.971 81.0738 109.811 80.7818 109.995L75.1185 113.571C74.668 113.856 74.1443 113.332 74.4288 112.881L78.005 107.218C78.1894 106.926 78.0293 106.54 77.6924 106.463L71.1591 104.988C70.6393 104.87 70.6393 104.13 71.1591 104.012L77.6924 102.537C78.0293 102.46 78.1894 102.074 78.005 101.782L74.4288 96.1185C74.1443 95.668 74.668 95.1443 75.1185 95.4288L80.7818 99.005C81.0738 99.1894 81.4604 99.0293 81.5365 98.6924L83.0123 92.1591Z" fill="#FFF2B8"/>
<path fill-rule="evenodd" clip-rule="evenodd" d="M61 113C74.8071 113 86 110.314 86 107V104H82.6554C78.3328 102.207 70.2535 101 61 101C51.7465 101 43.6672 102.207 39.3446 104H36V107C36 110.314 47.1929 113 61 113Z" fill="#FFC73C"/>
<ellipse cx="61" cy="104" rx="25" ry="6" fill="#FFF2B8"/>
<path fill-rule="evenodd" clip-rule="evenodd" d="M61 108.8C72.598 108.8 82 106.543 82 103.76V101.24H79.1906C75.5596 99.7335 68.773 98.72 61 98.72C53.227 98.72 46.4404 99.7335 42.8094 101.24H40V103.76C40 106.543 49.402 108.8 61 108.8Z" fill="#FFC73C"/>
<ellipse cx="61" cy="101" rx="21" ry="5" fill="#FFF2B8"/>
<path fill-rule="evenodd" clip-rule="evenodd" d="M74 88H48L42 100.235H42.0323C42.0109 100.323 42 100.411 42 100.5C42 102.985 50.5066 105 61 105C71.4934 105 80 102.985 80 100.5C80 100.411 79.9891 100.323 79.9677 100.235H80L74 88Z" fill="#FFC73C"/>
<path fill-rule="evenodd" clip-rule="evenodd" d="M48.353 103.858C51.7122 104.568 56.1434 105 61.0003 105C71.4937 105 80.0003 102.985 80.0003 100.5C80.0003 100.411 79.9894 100.323 79.9679 100.235H80.0003L74.0003 88H70.2015C67.1321 93.9724 60.1049 102.345 48.353 103.858Z" fill="url(#paint0_linear_2152_272)"/>
<ellipse cx="61" cy="88" rx="13" ry="3" fill="#FFF2B8"/>
<path fill-rule="evenodd" clip-rule="evenodd" d="M65 63H57L55.0094 86.887C55.0032 86.9244 55 86.9621 55 87C55 88.1046 57.6863 89 61 89C64.3137 89 67 88.1046 67 87C67 86.9621 66.9968 86.9244 66.9906 86.887L65 63Z" fill="#FFD72C"/>
<path fill-rule="evenodd" clip-rule="evenodd" d="M60 88.9723C60.3252 88.9905 60.6593 89 61 89C64.3137 89 67 88.1046 67 87C67 86.9621 66.9968 86.9244 66.9906 86.887L65 63H63L64.9906 86.887C64.9968 86.9244 65 86.9621 65 87C65 87.991 62.8377 88.8137 60 88.9723Z" fill="#FFC73C"/>
<ellipse cx="61" cy="61" rx="7" ry="4" fill="#FFC73C"/>
<ellipse cx="61" cy="59" rx="9" ry="5" fill="#FFE266"/>
<path fill-rule="evenodd" clip-rule="evenodd" d="M31.8309 20.2992C32.926 21.4772 33.8156 23.4155 34.2981 24.7023L38.0435 23.2978C37.526 21.9179 36.4156 19.3562 34.7606 17.5758C33.9266 16.6786 32.772 15.781 31.2965 15.535C29.7168 15.2718 28.1957 15.8207 26.8538 16.9949C25.4864 18.1913 24.9843 19.8649 25.0006 21.5347C25.0166 23.176 25.5229 24.951 26.3256 26.7063C27.9366 30.2295 30.9448 34.1174 34.8609 37.5114L37.4807 34.4886C33.8968 31.3826 31.2865 27.9367 29.9633 25.0429C29.2989 23.5898 29.0091 22.3856 29.0004 21.4957C28.992 20.6344 29.2367 20.2249 29.4878 20.0052C30.1459 19.4293 30.4998 19.4574 30.6389 19.4806C30.8821 19.5212 31.29 19.7173 31.8309 20.2992Z" fill="#FFC73C"/>
<path d="M34 13.4174C34 13.1869 34.1869 13 34.4174 13H86.5826C86.8131 13 87 13.1869 87 13.4174V34.5C87 49.1355 75.1355 61 60.5 61C45.8645 61 34 49.1355 34 34.5V13.4174Z" fill="#FFC73C"/>
<path fill-rule="evenodd" clip-rule="evenodd" d="M89.34 20.2992C88.2449 21.4772 87.3553 23.4155 86.8728 24.7023L83.1274 23.2978C83.6449 21.9179 84.7553 19.3562 86.4102 17.5758C87.2443 16.6786 88.3989 15.781 89.8744 15.535C91.4541 15.2718 92.9752 15.8207 94.3171 16.9949C95.6845 18.1913 96.1866 19.8649 96.1703 21.5347C96.1543 23.176 95.648 24.951 94.8453 26.7063C93.2343 30.2295 90.2261 34.1174 86.31 37.5114L83.6902 34.4886C87.2741 31.3826 89.8844 27.9367 91.2076 25.0429C91.872 23.5898 92.1618 22.3856 92.1705 21.4957C92.1789 20.6344 91.9342 20.2249 91.6831 20.0052C91.025 19.4293 90.6711 19.4574 90.532 19.4806C90.2888 19.5212 89.8809 19.7173 89.34 20.2992Z" fill="#FFC73C"/>
<ellipse cx="60.5" cy="13.5" rx="26.5" ry="5.5" fill="url(#paint1_linear_2152_272)"/>
<path fill-rule="evenodd" clip-rule="evenodd" d="M51.7871 59.5343C42.265 56.2206 35.215 47.6275 34.1421 37.2601C49.7578 36.6029 73.6299 33.8118 87.0001 20.936V34.5C87.0001 44.5754 81.3772 53.3376 73.0983 57.8196L51.7871 59.5343Z" fill="url(#paint2_linear_2152_272)"/>
<path fill-rule="evenodd" clip-rule="evenodd" d="M83.3961 47.851C78.7999 55.7162 70.267 61 60.5 61C45.8645 61 34 49.1356 34 34.5V22.2092C46.4725 32.4575 66.4402 45.719 83.3961 47.851Z" fill="url(#paint3_linear_2152_272)"/>
<path d="M19.1363 32.3273C19.2377 31.9574 19.7623 31.9574 19.8637 32.3273L20.1847 33.4992C21.0279 36.5768 23.2839 39.0702 26.2621 40.2161C26.522 40.3161 26.522 40.6839 26.2621 40.7839C23.2839 41.9298 21.0279 44.4232 20.1847 47.5008L19.8637 48.6727C19.7623 49.0426 19.2377 49.0426 19.1363 48.6727L18.8153 47.5008C17.9721 44.4232 15.7161 41.9298 12.7379 40.7839C12.478 40.6839 12.478 40.3161 12.7379 40.2161C15.7161 39.0702 17.9721 36.5768 18.8153 33.4992L19.1363 32.3273Z" fill="url(#paint4_linear_2152_272)"/>
<path d="M85.2147 56.1209C85.29 55.8252 85.71 55.8252 85.7853 56.1209L86.0504 57.1626C86.6389 59.4753 88.2838 61.3749 90.4885 62.2881C90.6772 62.3663 90.6772 62.6337 90.4885 62.7119C88.2838 63.6251 86.6389 65.5247 86.0504 67.8374L85.7853 68.8791C85.71 69.1748 85.29 69.1748 85.2147 68.8791L84.9496 67.8374C84.3611 65.5247 82.7162 63.6251 80.5115 62.7119C80.3228 62.6337 80.3228 62.3663 80.5115 62.2881C82.7162 61.3749 84.3611 59.4753 84.9496 57.1626L85.2147 56.1209Z" fill="url(#paint5_linear_2152_272)"/>
<path d="M53.3671 87.536C53.4015 87.3974 53.5985 87.3974 53.6329 87.536L53.7578 88.0398C54.0206 89.1003 54.7666 89.9755 55.772 90.403C55.8575 90.4394 55.8575 90.5606 55.772 90.597C54.7666 91.0245 54.0206 91.8998 53.7578 92.9602L53.6329 93.464C53.5985 93.6026 53.4015 93.6026 53.3671 93.464L53.2422 92.9602C52.9794 91.8998 52.2334 91.0245 51.228 90.597C51.1425 90.5606 51.1425 90.4394 51.228 90.403C52.2334 89.9755 52.9794 89.1002 53.2422 88.0398L53.3671 87.536Z" fill="white"/>
<path d="M79.2925 12.9394C79.3416 12.7172 79.6584 12.7172 79.7075 12.9394L79.9051 13.8345C80.246 15.3782 81.2793 16.6786 82.7059 17.3596C82.824 17.416 82.824 17.584 82.7059 17.6404C81.2793 18.3214 80.246 19.6218 79.9051 21.1655L79.7075 22.0606C79.6584 22.2828 79.3416 22.2828 79.2925 22.0606L79.0949 21.1655C78.754 19.6218 77.7207 18.3214 76.2941 17.6404C76.176 17.584 76.176 17.416 76.2941 17.3596C77.7207 16.6786 78.754 15.3782 79.0949 13.8345L79.2925 12.9394Z" fill="white"/>
<path d="M98.2538 85.0249C98.3159 84.7662 98.6841 84.7662 98.7462 85.0249L98.9798 85.9972C99.4432 87.926 100.782 89.527 102.599 90.324C102.752 90.3913 102.752 90.6087 102.599 90.676C100.782 91.473 99.4432 93.074 98.9798 95.0028L98.7462 95.9751C98.6841 96.2338 98.3159 96.2338 98.2538 95.9751L98.0202 95.0028C97.5568 93.074 96.2177 91.473 94.4012 90.676C94.2479 90.6087 94.2479 90.3913 94.4012 90.324C96.2177 89.527 97.5568 87.926 98.0202 85.9972L98.2538 85.0249Z" fill="#03968D"/>
<path d="M24.3671 101.536C24.4015 101.397 24.5985 101.397 24.6329 101.536L24.7578 102.04C25.0206 103.1 25.7666 103.975 26.772 104.403C26.8575 104.439 26.8575 104.561 26.772 104.597C25.7666 105.025 25.0206 105.9 24.7578 106.96L24.6329 107.464C24.5985 107.603 24.4015 107.603 24.3671 107.464L24.2422 106.96C23.9794 105.9 23.2334 105.025 22.228 104.597C22.1425 104.561 22.1425 104.439 22.228 104.403C23.2334 103.975 23.9794 103.1 24.2422 102.04L24.3671 101.536Z" fill="#03968D"/>
<path d="M31.2887 87.7442C31.3491 87.5313 31.6509 87.5313 31.7113 87.7442L31.8911 88.3774C32.4092 90.2022 33.7663 91.6707 35.5446 92.3309C35.7014 92.3891 35.7014 92.6109 35.5446 92.6691C33.7663 93.3293 32.4092 94.7978 31.8911 96.6226L31.7113 97.2558C31.6509 97.4687 31.3491 97.4687 31.2887 97.2558L31.1089 96.6226C30.5908 94.7978 29.2337 93.3293 27.4554 92.6691C27.2986 92.6109 27.2986 92.3891 27.4554 92.3309C29.2337 91.6707 30.5908 90.2022 31.1089 88.3774L31.2887 87.7442Z" fill="url(#paint6_linear_2152_272)"/>
<path d="M86.3671 0.536009C86.4015 0.397405 86.5985 0.397405 86.6329 0.536009L86.7578 1.03981C87.0206 2.10025 87.7666 2.97548 88.772 3.40304C88.8575 3.4394 88.8575 3.5606 88.772 3.59696C87.7666 4.02452 87.0206 4.89975 86.7578 5.96019L86.6329 6.46399C86.5985 6.60259 86.4015 6.60259 86.3671 6.46399L86.2422 5.96019C85.9794 4.89975 85.2334 4.02452 84.228 3.59696C84.1425 3.5606 84.1425 3.4394 84.228 3.40304C85.2334 2.97548 85.9794 2.10025 86.2422 1.03981L86.3671 0.536009Z" fill="#00BAAE"/>
<path d="M11.205 73.5912C11.2657 73.2641 11.7343 73.2641 11.795 73.5912L12.1665 75.5955C12.2099 75.8295 12.4954 75.9222 12.668 75.7584L14.1467 74.3553C14.388 74.1264 14.7671 74.4018 14.6239 74.7021L13.7464 76.542C13.644 76.7568 13.8204 76.9996 14.0564 76.9686L16.0774 76.7026C16.4072 76.6592 16.552 77.1049 16.2597 77.2636L14.4683 78.2364C14.2592 78.3499 14.2592 78.6501 14.4683 78.7636L16.2597 79.7364C16.552 79.8951 16.4072 80.3408 16.0774 80.2974L14.0564 80.0314C13.8204 80.0004 13.644 80.2432 13.7464 80.458L14.6239 82.2979C14.7671 82.5982 14.388 82.8736 14.1467 82.6447L12.668 81.2416C12.4954 81.0778 12.2099 81.1705 12.1665 81.4045L11.795 83.4088C11.7343 83.7359 11.2657 83.7359 11.205 83.4088L10.8335 81.4045C10.7901 81.1705 10.5046 81.0778 10.332 81.2416L8.85334 82.6447C8.61202 82.8736 8.23285 82.5982 8.37606 82.2979L9.25356 80.458C9.356 80.2432 9.17956 80.0004 8.94363 80.0314L6.92263 80.2974C6.59281 80.3408 6.44798 79.8951 6.74033 79.7364L8.5317 78.7636C8.74082 78.6501 8.74082 78.3499 8.5317 78.2364L6.74033 77.2636C6.44798 77.1049 6.59281 76.6592 6.92263 76.7026L8.94363 76.9686C9.17956 76.9996 9.356 76.7568 9.25356 76.542L8.37606 74.7021C8.23285 74.4018 8.61202 74.1264 8.85333 74.3553L10.332 75.7584C10.5046 75.9222 10.7901 75.8295 10.8335 75.5955L11.205 73.5912Z" fill="url(#paint7_linear_2152_272)"/>
<path d="M105.205 34.5912C105.266 34.2641 105.734 34.2641 105.795 34.5912L106.167 36.5955C106.21 36.8295 106.495 36.9222 106.668 36.7584L108.147 35.3553C108.388 35.1264 108.767 35.4018 108.624 35.7021L107.746 37.542C107.644 37.7568 107.82 37.9996 108.056 37.9686L110.077 37.7026C110.407 37.6592 110.552 38.1049 110.26 38.2636L108.468 39.2364C108.259 39.3499 108.259 39.6501 108.468 39.7636L110.26 40.7364C110.552 40.8951 110.407 41.3408 110.077 41.2974L108.056 41.0314C107.82 41.0004 107.644 41.2432 107.746 41.458L108.624 43.2979C108.767 43.5982 108.388 43.8736 108.147 43.6447L106.668 42.2416C106.495 42.0778 106.21 42.1705 106.167 42.4045L105.795 44.4088C105.734 44.7359 105.266 44.7359 105.205 44.4088L104.833 42.4045C104.79 42.1705 104.505 42.0778 104.332 42.2416L102.853 43.6447C102.612 43.8736 102.233 43.5982 102.376 43.2979L103.254 41.458C103.356 41.2432 103.18 41.0004 102.944 41.0314L100.923 41.2974C100.593 41.3408 100.448 40.8951 100.74 40.7364L102.532 39.7636C102.741 39.6501 102.741 39.3499 102.532 39.2364L100.74 38.2636C100.448 38.1049 100.593 37.6592 100.923 37.7026L102.944 37.9686C103.18 37.9996 103.356 37.7568 103.254 37.542L102.376 35.7021C102.233 35.4018 102.612 35.1264 102.853 35.3553L104.332 36.7584C104.505 36.9222 104.79 36.8295 104.833 36.5955L105.205 34.5912Z" fill="url(#paint8_linear_2152_272)"/>
<defs>
<linearGradient id="paint0_linear_2152_272" x1="61.0002" y1="95" x2="80.0002" y2="99.5" gradientUnits="userSpaceOnUse">
<stop stop-color="#FFD72C"/>
<stop offset="1" stop-color="#FFC73B"/>
</linearGradient>
<linearGradient id="paint1_linear_2152_272" x1="60.5" y1="8" x2="60.5" y2="19" gradientUnits="userSpaceOnUse">
<stop stop-color="#FFC73B"/>
<stop offset="1" stop-color="#FFE266"/>
</linearGradient>
<linearGradient id="paint2_linear_2152_272" x1="59.5" y1="27.5" x2="84" y2="53" gradientUnits="userSpaceOnUse">
<stop stop-color="#FFDC5C"/>
<stop offset="1" stop-color="#FFD72C" stop-opacity="0"/>
</linearGradient>
<linearGradient id="paint3_linear_2152_272" x1="54.5" y1="33.5" x2="44" y2="61" gradientUnits="userSpaceOnUse">
<stop stop-color="#FFE266"/>
<stop offset="0.885981" stop-color="#FFC73B"/>
</linearGradient>
<linearGradient id="paint4_linear_2152_272" x1="19.5" y1="31" x2="19.6913" y2="53.4376" gradientUnits="userSpaceOnUse">
<stop stop-color="#00BAAE"/>
<stop offset="1" stop-color="#C6F2EF"/>
</linearGradient>
<linearGradient id="paint5_linear_2152_272" x1="85.5" y1="55" x2="85.6626" y2="72.7137" gradientUnits="userSpaceOnUse">
<stop stop-color="#00BAAE"/>
<stop offset="1" stop-color="#C6F2EF"/>
</linearGradient>
<linearGradient id="paint6_linear_2152_272" x1="31.5" y1="87" x2="31.6069" y2="99.9902" gradientUnits="userSpaceOnUse">
<stop stop-color="#00BAAE"/>
<stop offset="1" stop-color="#C6F2EF"/>
</linearGradient>
<linearGradient id="paint7_linear_2152_272" x1="11.5" y1="72" x2="11.5" y2="85" gradientUnits="userSpaceOnUse">
<stop stop-color="#FFC73C"/>
<stop offset="1" stop-color="#FFC73C" stop-opacity="0"/>
</linearGradient>
<linearGradient id="paint8_linear_2152_272" x1="105.5" y1="33" x2="105.5" y2="46" gradientUnits="userSpaceOnUse">
<stop stop-color="#FFC73C"/>
<stop offset="1" stop-color="#FFC73C" stop-opacity="0"/>
</linearGradient>
</defs>
</svg>
