<svg width="154" height="218" viewBox="0 0 154 218" fill="none" xmlns="http://www.w3.org/2000/svg">
<rect width="154" height="218" rx="12" fill="white"/>
<rect width="120" height="120" transform="translate(17 49)" fill="white"/>
<rect x="50.4906" y="59.9853" width="67.0361" height="90.241" rx="2" transform="rotate(7.49556 50.4906 59.9853)" fill="#00BAAE"/>
<rect x="33.6724" y="74.3237" width="67.0361" height="90.241" rx="2" transform="rotate(-15.1806 33.6724 74.3237)" fill="#CEF4F1"/>
<rect x="42.2111" y="62.0281" width="69.899" height="92.8346" rx="2" fill="#45CCC3"/>
<path fill-rule="evenodd" clip-rule="evenodd" d="M74.4271 154.863H44.211C43.1064 154.863 42.211 153.967 42.211 152.863V75.2585C46.5395 73.794 51.177 73 56.0001 73C79.7483 73 99.0001 92.2518 99.0001 116C99.0001 133.154 88.9555 147.962 74.4271 154.863Z" fill="url(#paint0_linear_1_357)"/>
<rect x="53.1328" y="70.7655" width="21.8434" height="21.8434" rx="2" fill="white" fill-opacity="0.7"/>
<rect x="78.2527" y="70.7655" width="24.0278" height="3.27652" rx="1.5" fill="white" fill-opacity="0.7"/>
<rect x="78.2527" y="79.5028" width="24.0278" height="13.1061" rx="1.5" fill="white" fill-opacity="0.7"/>
<rect x="53" y="102" width="49.1477" height="2.18434" rx="1" fill="white"/>
<rect x="53" y="114.184" width="49.1477" height="2.18434" rx="1" fill="white"/>
<rect x="53" y="126.369" width="49.1477" height="2.18434" rx="1" fill="white"/>
<rect x="53" y="138.553" width="28" height="2" rx="1" fill="white"/>
<path d="M95.7257 101.339L101.678 98.866L121.076 145.562C121.287 146.072 121.046 146.657 120.536 146.869L116.43 148.574C115.92 148.786 115.335 148.545 115.123 148.035L95.7257 101.339Z" fill="#FFC73C"/>
<path d="M93.4103 87.8721C93.3742 87.6623 93.6473 87.5488 93.7705 87.7224L101.677 98.8642L95.7249 101.337L93.4103 87.8721Z" fill="#FFF2B8"/>
<path fill-rule="evenodd" clip-rule="evenodd" d="M93.7704 87.7224C93.6472 87.5488 93.3741 87.6622 93.4102 87.872L93.933 90.9135L95.5564 90.2391L93.7704 87.7224Z" fill="#333333"/>
<rect x="112.539" y="141.815" width="6.44578" height="2.57831" transform="rotate(-22.5578 112.539 141.815)" fill="#03968D"/>
<rect x="50.9314" y="62.7972" width="4.37148" height="7.59438" rx="2.18574" stroke="#FFC73C"/>
<path fill-rule="evenodd" clip-rule="evenodd" d="M54.8029 62V60.6857C54.8029 59.7547 54.0482 59 53.1172 59C52.1861 59 51.4314 59.7547 51.4314 60.6857V68.2058C51.4314 69.0974 52.1237 69.8274 53 69.8875V70H55.1157C54.624 70.5473 53.9108 70.8915 53.1172 70.8915C51.6339 70.8915 50.4314 69.6891 50.4314 68.2058V60.6857C50.4314 59.2024 51.6339 58 53.1172 58C54.6004 58 55.8029 59.2024 55.8029 60.6857V62H54.8029Z" fill="#FFC73C"/>
<rect x="39.9368" y="112.841" width="16.759" height="25.1385" rx="3" transform="rotate(27.0211 39.9368 112.841)" fill="#FFF2B8"/>
<path d="M36.13 120.306L51.0596 127.92L44.8086 140.177C44.0559 141.653 42.2492 142.239 40.7732 141.486L31.1886 136.598C29.7126 135.845 29.1263 134.039 29.879 132.563L36.13 120.306Z" fill="#FFC73C"/>
<path fill-rule="evenodd" clip-rule="evenodd" d="M36.9461 139.534L31.1886 136.598C29.7126 135.845 29.1263 134.039 29.879 132.563L34.2221 124.047C36.5726 126.695 38.0001 130.181 38.0001 134C38.0001 135.955 37.6262 137.822 36.9461 139.534Z" fill="#FFE266"/>
<circle cx="64" cy="82" r="7" fill="#FFD72C"/>
<circle cx="61.9583" cy="80.5417" r="0.875" fill="white"/>
<circle cx="66.0417" cy="80.5416" r="0.875" fill="white"/>
<path fill-rule="evenodd" clip-rule="evenodd" d="M61.5412 82.5834C60.9889 82.5834 60.5268 83.0402 60.6822 83.5701C61.1082 85.0227 62.4508 86.0834 64.0412 86.0834C65.6315 86.0834 66.9741 85.0227 67.4001 83.5701C67.5556 83.0402 67.0934 82.5834 66.5412 82.5834L61.5412 82.5834Z" fill="white"/>
<defs>
<linearGradient id="paint0_linear_1_357" x1="75.0001" y1="98" x2="41.8141" y2="152.888" gradientUnits="userSpaceOnUse">
<stop stop-color="#00BAAE"/>
<stop offset="1" stop-color="#C6F2EF"/>
</linearGradient>
</defs>
</svg>
