<svg width="154" height="218" viewBox="0 0 154 218" fill="none" xmlns="http://www.w3.org/2000/svg">
<rect width="154" height="218" rx="12" fill="white"/>
<rect width="120" height="120" transform="translate(17 49)" fill="white"/>
<path d="M56.0123 93.1591C56.1297 92.6393 56.8703 92.6393 56.9877 93.1591L58.4635 99.6924C58.5396 100.029 58.9262 100.189 59.2182 100.005L64.8815 96.4288C65.332 96.1443 65.8557 96.668 65.5712 97.1185L61.995 102.782C61.8106 103.074 61.9707 103.46 62.3076 103.537L68.8409 105.012C69.3607 105.13 69.3607 105.87 68.8409 105.988L62.3076 107.463C61.9707 107.54 61.8106 107.926 61.995 108.218L65.5712 113.881C65.8557 114.332 65.332 114.856 64.8815 114.571L59.2182 110.995C58.9262 110.811 58.5396 110.971 58.4635 111.308L56.9877 117.841C56.8703 118.361 56.1297 118.361 56.0123 117.841L54.5365 111.308C54.4604 110.971 54.0738 110.811 53.7818 110.995L48.1185 114.571C47.668 114.856 47.1443 114.332 47.4288 113.881L51.005 108.218C51.1894 107.926 51.0293 107.54 50.6924 107.463L44.1591 105.988C43.6393 105.87 43.6393 105.13 44.1591 105.012L50.6924 103.537C51.0293 103.46 51.1894 103.074 51.005 102.782L47.4288 97.1185C47.1443 96.668 47.668 96.1443 48.1185 96.4288L53.7818 100.005C54.0738 100.189 54.4604 100.029 54.5365 99.6924L56.0123 93.1591Z" fill="#FFF2B8"/>
<path d="M100.012 141.159C100.13 140.639 100.87 140.639 100.988 141.159L102.463 147.692C102.54 148.029 102.926 148.189 103.218 148.005L108.881 144.429C109.332 144.144 109.856 144.668 109.571 145.119L105.995 150.782C105.811 151.074 105.971 151.46 106.308 151.537L112.841 153.012C113.361 153.13 113.361 153.87 112.841 153.988L106.308 155.463C105.971 155.54 105.811 155.926 105.995 156.218L109.571 161.881C109.856 162.332 109.332 162.856 108.881 162.571L103.218 158.995C102.926 158.811 102.54 158.971 102.463 159.308L100.988 165.841C100.87 166.361 100.13 166.361 100.012 165.841L98.5365 159.308C98.4604 158.971 98.0738 158.811 97.7818 158.995L92.1185 162.571C91.668 162.856 91.1443 162.332 91.4288 161.881L95.005 156.218C95.1894 155.926 95.0293 155.54 94.6924 155.463L88.1591 153.988C87.6393 153.87 87.6393 153.13 88.1591 153.012L94.6924 151.537C95.0293 151.46 95.1894 151.074 95.005 150.782L91.4288 145.119C91.1443 144.668 91.668 144.144 92.1185 144.429L97.7818 148.005C98.0738 148.189 98.4604 148.029 98.5365 147.692L100.012 141.159Z" fill="#FFF2B8"/>
<path fill-rule="evenodd" clip-rule="evenodd" d="M78 162C91.8071 162 103 159.314 103 156V153H99.6554C95.3328 151.207 87.2535 150 78 150C68.7465 150 60.6672 151.207 56.3446 153H53V156C53 159.314 64.1929 162 78 162Z" fill="#FFC73C"/>
<ellipse cx="78" cy="153" rx="25" ry="6" fill="#FFF2B8"/>
<path fill-rule="evenodd" clip-rule="evenodd" d="M78 157.8C89.598 157.8 99 155.543 99 152.76V150.24H96.1906C92.5596 148.734 85.773 147.72 78 147.72C70.227 147.72 63.4404 148.734 59.8094 150.24H57V152.76C57 155.543 66.402 157.8 78 157.8Z" fill="#FFC73C"/>
<ellipse cx="78" cy="150" rx="21" ry="5" fill="#FFF2B8"/>
<path fill-rule="evenodd" clip-rule="evenodd" d="M91 137H65L59 149.235H59.0323C59.0109 149.323 59 149.411 59 149.5C59 151.985 67.5066 154 78 154C88.4934 154 97 151.985 97 149.5C97 149.411 96.9891 149.323 96.9677 149.235H97L91 137Z" fill="#FFC73C"/>
<path fill-rule="evenodd" clip-rule="evenodd" d="M65.3528 152.858C68.7119 153.568 73.1431 154 78 154C88.4934 154 97 151.985 97 149.5C97 149.411 96.9891 149.323 96.9677 149.235H97L91 137H87.2013C84.1318 142.972 77.1047 151.345 65.3528 152.858Z" fill="url(#paint0_linear_1_299)"/>
<ellipse cx="78" cy="137" rx="13" ry="3" fill="#FFF2B8"/>
<path fill-rule="evenodd" clip-rule="evenodd" d="M82 112H74L72.0094 135.887C72.0032 135.924 72 135.962 72 136C72 137.105 74.6863 138 78 138C81.3137 138 84 137.105 84 136C84 135.962 83.9968 135.924 83.9906 135.887L82 112Z" fill="#FFD72C"/>
<path fill-rule="evenodd" clip-rule="evenodd" d="M77 137.972C77.3252 137.991 77.6593 138 78 138C81.3137 138 84 137.105 84 136C84 135.962 83.9968 135.924 83.9906 135.887L82 112H80L81.9906 135.887C81.9968 135.924 82 135.962 82 136C82 136.991 79.8377 137.814 77 137.972Z" fill="#FFC73C"/>
<ellipse cx="78" cy="110" rx="7" ry="4" fill="#FFC73C"/>
<ellipse cx="78" cy="108" rx="9" ry="5" fill="#FFE266"/>
<path fill-rule="evenodd" clip-rule="evenodd" d="M48.8307 69.2992C49.9257 70.4772 50.8153 72.4155 51.2979 73.7023L55.0432 72.2978C54.5258 70.9179 53.4154 68.3562 51.7604 66.5758C50.9264 65.6786 49.7717 64.781 48.2962 64.535C46.7165 64.2718 45.1954 64.8207 43.8535 65.9949C42.4861 67.1913 41.9841 68.8649 42.0004 70.5347C42.0164 72.176 42.5227 73.951 43.3253 75.7063C44.9364 79.2295 47.9446 83.1174 51.8607 86.5114L54.4804 83.4886C50.8966 80.3826 48.2863 76.9367 46.9631 74.0429C46.2986 72.5898 46.0089 71.3856 46.0002 70.4957C45.9918 69.6344 46.2365 69.2249 46.4876 69.0052C47.1457 68.4293 47.4996 68.4574 47.6386 68.4806C47.8819 68.5212 48.2897 68.7173 48.8307 69.2992Z" fill="#FFC73C"/>
<path d="M51 62.4174C51 62.1869 51.1869 62 51.4174 62H103.583C103.813 62 104 62.1869 104 62.4174V83.5C104 98.1355 92.1355 110 77.5 110V110C62.8645 110 51 98.1355 51 83.5V62.4174Z" fill="#FFC73C"/>
<path fill-rule="evenodd" clip-rule="evenodd" d="M106.34 69.2992C105.245 70.4772 104.355 72.4155 103.873 73.7023L100.127 72.2978C100.645 70.9179 101.755 68.3562 103.41 66.5758C104.244 65.6786 105.399 64.781 106.874 64.535C108.454 64.2718 109.975 64.8207 111.317 65.9949C112.685 67.1913 113.187 68.8649 113.17 70.5347C113.154 72.176 112.648 73.951 111.845 75.7063C110.234 79.2295 107.226 83.1174 103.31 86.5114L100.69 83.4886C104.274 80.3826 106.884 76.9367 108.208 74.0429C108.872 72.5898 109.162 71.3856 109.17 70.4957C109.179 69.6344 108.934 69.2249 108.683 69.0052C108.025 68.4293 107.671 68.4574 107.532 68.4806C107.289 68.5212 106.881 68.7173 106.34 69.2992Z" fill="#FFC73C"/>
<ellipse cx="77.5" cy="62.5" rx="26.5" ry="5.5" fill="url(#paint1_linear_1_299)"/>
<path fill-rule="evenodd" clip-rule="evenodd" d="M68.7871 108.534C59.265 105.221 52.215 96.6275 51.1421 86.2601C66.7578 85.6029 90.6299 82.8118 104 69.936V83.5C104 93.5754 98.3772 102.338 90.0983 106.82L68.7871 108.534Z" fill="url(#paint2_linear_1_299)"/>
<path fill-rule="evenodd" clip-rule="evenodd" d="M100.396 96.851C95.7999 104.716 87.267 110 77.5 110C62.8645 110 51 98.1356 51 83.5V71.2092C63.4725 81.4575 83.4402 94.719 100.396 96.851Z" fill="url(#paint3_linear_1_299)"/>
<path d="M36.1363 81.3273C36.2377 80.9574 36.7623 80.9574 36.8637 81.3273L37.1847 82.4992C38.0279 85.5768 40.2839 88.0702 43.2621 89.2161V89.2161C43.522 89.3161 43.522 89.6839 43.2621 89.7839V89.7839C40.2839 90.9298 38.0279 93.4232 37.1847 96.5008L36.8637 97.6727C36.7623 98.0426 36.2377 98.0426 36.1363 97.6727L35.8153 96.5008C34.9721 93.4232 32.7161 90.9298 29.7379 89.7839V89.7839C29.478 89.6839 29.478 89.3161 29.7379 89.2161V89.2161C32.7161 88.0702 34.9721 85.5768 35.8153 82.4992L36.1363 81.3273Z" fill="url(#paint4_linear_1_299)"/>
<path d="M102.215 105.121C102.29 104.825 102.71 104.825 102.785 105.121L103.05 106.163C103.639 108.475 105.284 110.375 107.488 111.288V111.288C107.677 111.366 107.677 111.634 107.488 111.712V111.712C105.284 112.625 103.639 114.525 103.05 116.837L102.785 117.879C102.71 118.175 102.29 118.175 102.215 117.879L101.95 116.837C101.361 114.525 99.7162 112.625 97.5115 111.712V111.712C97.3228 111.634 97.3228 111.366 97.5115 111.288V111.288C99.7162 110.375 101.361 108.475 101.95 106.163L102.215 105.121Z" fill="url(#paint5_linear_1_299)"/>
<path d="M70.3671 136.536C70.4015 136.397 70.5985 136.397 70.6329 136.536L70.7578 137.04C71.0206 138.1 71.7666 138.975 72.772 139.403V139.403C72.8575 139.439 72.8575 139.561 72.772 139.597V139.597C71.7666 140.025 71.0206 140.9 70.7578 141.96L70.6329 142.464C70.5985 142.603 70.4015 142.603 70.3671 142.464L70.2422 141.96C69.9794 140.9 69.2334 140.025 68.228 139.597V139.597C68.1425 139.561 68.1425 139.439 68.228 139.403V139.403C69.2334 138.975 69.9794 138.1 70.2422 137.04L70.3671 136.536Z" fill="white"/>
<path d="M96.2925 61.9394C96.3416 61.7172 96.6584 61.7172 96.7075 61.9394L96.9051 62.8345C97.246 64.3782 98.2793 65.6786 99.7059 66.3596V66.3596C99.824 66.416 99.824 66.584 99.7059 66.6404V66.6404C98.2793 67.3214 97.246 68.6218 96.9051 70.1655L96.7075 71.0606C96.6584 71.2828 96.3416 71.2828 96.2925 71.0606L96.0949 70.1655C95.754 68.6218 94.7207 67.3214 93.2941 66.6404V66.6404C93.176 66.584 93.176 66.416 93.2941 66.3596V66.3596C94.7207 65.6786 95.754 64.3782 96.0949 62.8345L96.2925 61.9394Z" fill="white"/>
<path d="M115.254 134.025C115.316 133.766 115.684 133.766 115.746 134.025L115.98 134.997C116.443 136.926 117.782 138.527 119.599 139.324V139.324C119.752 139.391 119.752 139.609 119.599 139.676V139.676C117.782 140.473 116.443 142.074 115.98 144.003L115.746 144.975C115.684 145.234 115.316 145.234 115.254 144.975L115.02 144.003C114.557 142.074 113.218 140.473 111.401 139.676V139.676C111.248 139.609 111.248 139.391 111.401 139.324V139.324C113.218 138.527 114.557 136.926 115.02 134.997L115.254 134.025Z" fill="#03968D"/>
<path d="M41.3671 150.536C41.4015 150.397 41.5985 150.397 41.6329 150.536L41.7578 151.04C42.0206 152.1 42.7666 152.975 43.772 153.403V153.403C43.8575 153.439 43.8575 153.561 43.772 153.597V153.597C42.7666 154.025 42.0206 154.9 41.7578 155.96L41.6329 156.464C41.5985 156.603 41.4015 156.603 41.3671 156.464L41.2422 155.96C40.9794 154.9 40.2334 154.025 39.228 153.597V153.597C39.1425 153.561 39.1425 153.439 39.228 153.403V153.403C40.2334 152.975 40.9794 152.1 41.2422 151.04L41.3671 150.536Z" fill="#03968D"/>
<path d="M48.2887 136.744C48.3491 136.531 48.6509 136.531 48.7113 136.744L48.8911 137.377C49.4092 139.202 50.7663 140.671 52.5446 141.331V141.331C52.7014 141.389 52.7014 141.611 52.5446 141.669V141.669C50.7663 142.329 49.4092 143.798 48.8911 145.623L48.7113 146.256C48.6509 146.469 48.3491 146.469 48.2887 146.256L48.1089 145.623C47.5908 143.798 46.2337 142.329 44.4554 141.669V141.669C44.2986 141.611 44.2986 141.389 44.4554 141.331V141.331C46.2337 140.671 47.5908 139.202 48.1089 137.377L48.2887 136.744Z" fill="url(#paint6_linear_1_299)"/>
<path d="M103.367 49.536C103.401 49.3974 103.599 49.3974 103.633 49.536L103.758 50.0398C104.021 51.1002 104.767 51.9755 105.772 52.403V52.403C105.858 52.4394 105.857 52.5606 105.772 52.597V52.597C104.767 53.0245 104.021 53.8998 103.758 54.9602L103.633 55.464C103.599 55.6026 103.401 55.6026 103.367 55.464L103.242 54.9602C102.979 53.8998 102.233 53.0245 101.228 52.597V52.597C101.143 52.5606 101.143 52.4394 101.228 52.403V52.403C102.233 51.9755 102.979 51.1002 103.242 50.0398L103.367 49.536Z" fill="#00BAAE"/>
<path d="M28.205 122.591C28.2657 122.264 28.7343 122.264 28.795 122.591L29.1665 124.596C29.2099 124.829 29.4954 124.922 29.668 124.758L31.1467 123.355C31.388 123.126 31.7671 123.402 31.6239 123.702L30.7464 125.542C30.644 125.757 30.8204 126 31.0564 125.969L33.0774 125.703C33.4072 125.659 33.552 126.105 33.2597 126.264L31.4683 127.236C31.2592 127.35 31.2592 127.65 31.4683 127.764L33.2597 128.736C33.552 128.895 33.4072 129.341 33.0774 129.297L31.0564 129.031C30.8204 129 30.644 129.243 30.7464 129.458L31.6239 131.298C31.7671 131.598 31.388 131.874 31.1467 131.645L29.668 130.242C29.4954 130.078 29.2099 130.171 29.1665 130.404L28.795 132.409C28.7343 132.736 28.2657 132.736 28.205 132.409L27.8335 130.404C27.7901 130.171 27.5046 130.078 27.332 130.242L25.8533 131.645C25.612 131.874 25.2329 131.598 25.3761 131.298L26.2536 129.458C26.356 129.243 26.1796 129 25.9436 129.031L23.9226 129.297C23.5928 129.341 23.448 128.895 23.7403 128.736L25.5317 127.764C25.7408 127.65 25.7408 127.35 25.5317 127.236L23.7403 126.264C23.448 126.105 23.5928 125.659 23.9226 125.703L25.9436 125.969C26.1796 126 26.356 125.757 26.2536 125.542L25.3761 123.702C25.2329 123.402 25.612 123.126 25.8533 123.355L27.332 124.758C27.5046 124.922 27.7901 124.829 27.8335 124.596L28.205 122.591Z" fill="url(#paint7_linear_1_299)"/>
<path d="M122.205 83.5912C122.266 83.2641 122.734 83.2641 122.795 83.5912L123.167 85.5955C123.21 85.8295 123.495 85.9222 123.668 85.7584L125.147 84.3553C125.388 84.1264 125.767 84.4018 125.624 84.7021L124.746 86.542C124.644 86.7568 124.82 86.9996 125.056 86.9686L127.077 86.7026C127.407 86.6592 127.552 87.1049 127.26 87.2636L125.468 88.2364C125.259 88.3499 125.259 88.6501 125.468 88.7636L127.26 89.7364C127.552 89.8951 127.407 90.3408 127.077 90.2974L125.056 90.0314C124.82 90.0004 124.644 90.2432 124.746 90.458L125.624 92.2979C125.767 92.5982 125.388 92.8736 125.147 92.6447L123.668 91.2416C123.495 91.0778 123.21 91.1705 123.167 91.4045L122.795 93.4088C122.734 93.7359 122.266 93.7359 122.205 93.4088L121.833 91.4045C121.79 91.1705 121.505 91.0778 121.332 91.2416L119.853 92.6447C119.612 92.8736 119.233 92.5982 119.376 92.2979L120.254 90.458C120.356 90.2432 120.18 90.0004 119.944 90.0314L117.923 90.2974C117.593 90.3408 117.448 89.8951 117.74 89.7364L119.532 88.7636C119.741 88.6501 119.741 88.3499 119.532 88.2364L117.74 87.2636C117.448 87.1049 117.593 86.6592 117.923 86.7026L119.944 86.9686C120.18 86.9996 120.356 86.7568 120.254 86.542L119.376 84.7021C119.233 84.4018 119.612 84.1264 119.853 84.3553L121.332 85.7584C121.505 85.9222 121.79 85.8295 121.833 85.5955L122.205 83.5912Z" fill="url(#paint8_linear_1_299)"/>
<defs>
<linearGradient id="paint0_linear_1_299" x1="78" y1="144" x2="97" y2="148.5" gradientUnits="userSpaceOnUse">
<stop stop-color="#FFD72C"/>
<stop offset="1" stop-color="#FFC73B"/>
</linearGradient>
<linearGradient id="paint1_linear_1_299" x1="77.5" y1="57" x2="77.5" y2="68" gradientUnits="userSpaceOnUse">
<stop stop-color="#FFC73B"/>
<stop offset="1" stop-color="#FFE266"/>
</linearGradient>
<linearGradient id="paint2_linear_1_299" x1="76.5" y1="76.5" x2="101" y2="102" gradientUnits="userSpaceOnUse">
<stop stop-color="#FFDC5C"/>
<stop offset="1" stop-color="#FFD72C" stop-opacity="0"/>
</linearGradient>
<linearGradient id="paint3_linear_1_299" x1="71.5" y1="82.5" x2="61" y2="110" gradientUnits="userSpaceOnUse">
<stop stop-color="#FFE266"/>
<stop offset="0.885981" stop-color="#FFC73B"/>
</linearGradient>
<linearGradient id="paint4_linear_1_299" x1="36.5" y1="80" x2="36.6913" y2="102.438" gradientUnits="userSpaceOnUse">
<stop stop-color="#00BAAE"/>
<stop offset="1" stop-color="#C6F2EF"/>
</linearGradient>
<linearGradient id="paint5_linear_1_299" x1="102.5" y1="104" x2="102.663" y2="121.714" gradientUnits="userSpaceOnUse">
<stop stop-color="#00BAAE"/>
<stop offset="1" stop-color="#C6F2EF"/>
</linearGradient>
<linearGradient id="paint6_linear_1_299" x1="48.5" y1="136" x2="48.6069" y2="148.99" gradientUnits="userSpaceOnUse">
<stop stop-color="#00BAAE"/>
<stop offset="1" stop-color="#C6F2EF"/>
</linearGradient>
<linearGradient id="paint7_linear_1_299" x1="28.5" y1="121" x2="28.5" y2="134" gradientUnits="userSpaceOnUse">
<stop stop-color="#FFC73C"/>
<stop offset="1" stop-color="#FFC73C" stop-opacity="0"/>
</linearGradient>
<linearGradient id="paint8_linear_1_299" x1="122.5" y1="82" x2="122.5" y2="95" gradientUnits="userSpaceOnUse">
<stop stop-color="#FFC73C"/>
<stop offset="1" stop-color="#FFC73C" stop-opacity="0"/>
</linearGradient>
</defs>
</svg>
