<svg width="14" height="20" viewBox="0 0 14 20" fill="none" xmlns="http://www.w3.org/2000/svg">
<path d="M1.5618e-07 2.49994L1.5618e-07 19.3746C-7.39594e-05 19.4831 0.0262319 19.5898 0.0763287 19.6841C0.126425 19.7784 0.198586 19.8572 0.285707 19.9125C0.372828 19.9679 0.471906 19.998 0.573189 19.9999C0.674472 20.0018 0.774468 19.9754 0.863333 19.9233L7 16.3359L13.1367 19.9233C13.2255 19.9754 13.3255 20.0018 13.4268 19.9999C13.5281 19.998 13.6272 19.9679 13.7143 19.9125C13.8014 19.8572 13.8736 19.7784 13.9237 19.6841C13.9738 19.5898 14.0001 19.4831 14 19.3746V2.49994C14 1.83692 13.7542 1.20105 13.3166 0.732216C12.879 0.263386 12.2855 0 11.6667 0L2.33333 0C1.71449 0 1.121 0.263386 0.683417 0.732216C0.245833 1.20105 1.5618e-07 1.83692 1.5618e-07 2.49994Z" fill="#FFC73C"/>
</svg>
