<svg width="120" height="120" viewBox="0 0 120 120" fill="none" xmlns="http://www.w3.org/2000/svg">
<rect width="120" height="120" fill="white"/>
<path d="M19.8208 56.8358H94.1044L78.776 66.2687H4.49243L19.8208 56.8358Z" fill="#636363"/>
<path d="M19.8208 32C19.8208 28.134 22.9548 25 26.8208 25H92.1044C93.209 25 94.1044 25.8954 94.1044 27V56.8358H19.8208V32Z" fill="#CEF4F1"/>
<path d="M15.5102 26.4368C18.3653 25.4852 21.3551 25 24.3645 25H91.7462L84.6715 27.3582H12.7461L15.5102 26.4368Z" fill="#45CCC3"/>
<path d="M10.3879 29.3582C10.3879 28.2536 11.2834 27.3582 12.3879 27.3582H84.6715V36.1492C84.6715 37.8061 83.3284 39.1492 81.6715 39.1492H13.3879C11.7311 39.1492 10.3879 37.8061 10.3879 36.1492V29.3582Z" fill="#03968D"/>
<path fill-rule="evenodd" clip-rule="evenodd" d="M71.7013 87.4925C82.7717 87.4925 91.746 78.5182 91.746 67.4477C91.746 56.3773 82.7717 47.403 71.7013 47.403C60.6308 47.403 51.6565 56.3773 51.6565 67.4477C51.6565 78.5182 60.6308 87.4925 71.7013 87.4925ZM71.7012 75.7014C76.2597 75.7014 79.955 72.0061 79.955 67.4477C79.955 62.8893 76.2597 59.194 71.7012 59.194C67.1428 59.194 63.4475 62.8893 63.4475 67.4477C63.4475 72.0061 67.1428 75.7014 71.7012 75.7014Z" fill="#333333"/>
<path fill-rule="evenodd" clip-rule="evenodd" d="M69.3431 86.3134C80.4135 86.3134 89.3879 77.3391 89.3879 66.2687C89.3879 55.1982 80.4135 46.2239 69.3431 46.2239C58.2727 46.2239 49.2983 55.1982 49.2983 66.2687C49.2983 77.3391 58.2727 86.3134 69.3431 86.3134ZM69.343 74.5224C73.9014 74.5224 77.5968 70.8271 77.5968 66.2687C77.5968 61.7102 73.9014 58.0149 69.343 58.0149C64.7846 58.0149 61.0893 61.7102 61.0893 66.2687C61.0893 70.8271 64.7846 74.5224 69.343 74.5224Z" fill="#FFC73C"/>
<rect x="82.218" y="59.1722" width="1.1791" height="4.71642" rx="0.589552" transform="rotate(25.7669 82.218 59.1722)" fill="#FFD72C"/>
<rect x="72.1458" y="77.2681" width="1.1791" height="4.71642" rx="0.589552" transform="rotate(-56.4123 72.1458 77.2681)" fill="#FFC73C"/>
<rect x="56.9609" y="76.874" width="1.1791" height="4.71642" rx="0.589552" transform="rotate(-121.507 56.9609 76.874)" fill="#FFC73C"/>
<rect x="56.4443" y="56.4658" width="1.1791" height="4.71642" rx="0.589552" transform="rotate(-53.5713 56.4443 56.4658)" fill="#FFD72C"/>
<rect x="70.2043" y="50.7561" width="1.1791" height="3.03788" rx="0.589552" transform="rotate(37.9136 70.2043 50.7561)" fill="#FFF2B8"/>
<rect x="82.9465" y="74.5612" width="1.1791" height="3.03788" rx="0.589552" transform="rotate(99.0666 82.9465 74.5612)" fill="#FFF2B8"/>
<rect x="63.0273" y="79.647" width="1.1791" height="3.03788" rx="0.589552" transform="rotate(33.4323 63.0273 79.647)" fill="#FFF2B8"/>
<rect x="55.3416" y="64.2711" width="1.1791" height="3.03788" rx="0.589552" transform="rotate(154.953 55.3416 64.2711)" fill="#FFF2B8"/>
<rect x="77.5967" y="53.2985" width="1.1791" height="1.1791" rx="0.589552" fill="white"/>
<rect x="57.552" y="67.4478" width="1.1791" height="1.1791" rx="0.589552" fill="white"/>
<rect x="62.2683" y="50.9403" width="1.1791" height="1.1791" rx="0.589552" fill="white"/>
<rect x="69.343" y="80.418" width="1.1791" height="1.1791" rx="0.589552" fill="white"/>
<rect x="84.6714" y="68.6268" width="1.1791" height="1.1791" rx="0.589552" fill="white"/>
<path fill-rule="evenodd" clip-rule="evenodd" d="M42.224 95.7464C53.2944 95.7464 62.2688 87.7977 62.2688 77.9925C62.2688 68.1872 53.2944 60.2385 42.224 60.2385C31.1536 60.2385 22.1792 68.1872 22.1792 77.9925C22.1792 87.7977 31.1536 95.7464 42.224 95.7464ZM42.2239 85.3029C46.7823 85.3029 50.4776 82.0299 50.4776 77.9924C50.4776 73.955 46.7823 70.682 42.2239 70.682C37.6655 70.682 33.9701 73.955 33.9701 77.9924C33.9701 82.0299 37.6655 85.3029 42.2239 85.3029Z" fill="#333333"/>
<path fill-rule="evenodd" clip-rule="evenodd" d="M39.8656 94.702C50.936 94.702 59.9104 86.7533 59.9104 76.948C59.9104 67.1428 50.936 59.1941 39.8656 59.1941C28.7952 59.1941 19.8208 67.1428 19.8208 76.948C19.8208 86.7533 28.7952 94.702 39.8656 94.702ZM39.8657 84.2585C44.4241 84.2585 48.1194 80.9855 48.1194 76.948C48.1194 72.9106 44.4241 69.6376 39.8657 69.6376C35.3073 69.6376 31.6119 72.9106 31.6119 76.948C31.6119 80.9855 35.3073 84.2585 39.8657 84.2585Z" fill="#FFC73C"/>
<rect width="1.15484" height="4.28446" rx="0.577422" transform="matrix(0.919488 0.393118 -0.478538 0.878067 52.7405 70.6626)" fill="#FFC73C"/>
<rect width="1.08737" height="4.55823" rx="0.543683" transform="matrix(0.599886 -0.800086 0.861951 0.506992 42.6685 86.6904)" fill="#FFC73C"/>
<rect width="1.08282" height="4.57552" rx="0.541409" transform="matrix(-0.569067 -0.822291 0.878835 -0.477125 27.4836 86.3414)" fill="#FFC73C"/>
<rect width="1.09376" height="4.53367" rx="0.546882" transform="matrix(0.640155 -0.768246 0.837029 0.547158 26.9668 68.2655)" fill="#FFC73C"/>
<rect width="1.13011" height="2.82679" rx="0.565057" transform="matrix(0.823139 0.56784 -0.660356 0.750953 40.7271 63.2084)" fill="#FFF2B8"/>
<rect width="1.04791" height="3.02974" rx="0.523953" transform="matrix(-0.177312 0.984155 -0.990159 -0.139948 53.4692 84.2928)" fill="#FFF2B8"/>
<rect width="1.13989" height="2.80063" rx="0.569943" transform="matrix(0.863251 0.504775 -0.597623 0.801777 33.5498 88.7975)" fill="#FFF2B8"/>
<rect width="1.15611" height="2.75613" rx="0.578054" transform="matrix(-0.923983 0.382432 -0.466634 -0.88445 25.864 75.1788)" fill="#FFF2B8"/>
<rect x="48.1194" y="65.4602" width="1.1791" height="1.04435" rx="0.522175" fill="white"/>
<rect x="28.0747" y="77.9924" width="1.1791" height="1.04435" rx="0.522175" fill="white"/>
<rect x="32.791" y="63.3715" width="1.1791" height="1.04435" rx="0.522175" fill="white"/>
<rect x="39.8657" y="89.4802" width="1.1791" height="1.04435" rx="0.522175" fill="white"/>
<rect x="55.1941" y="79.0367" width="1.1791" height="1.04435" rx="0.522175" fill="white"/>
<path fill-rule="evenodd" clip-rule="evenodd" d="M33.9701 81.597C45.0405 81.597 54.0148 72.6226 54.0148 61.5522C54.0148 50.4818 45.0405 41.5074 33.9701 41.5074C22.8996 41.5074 13.9253 50.4818 13.9253 61.5522C13.9253 72.6226 22.8996 81.597 33.9701 81.597ZM33.9701 69.806C38.5286 69.806 42.2239 66.1106 42.2239 61.5522C42.2239 56.9938 38.5286 53.2985 33.9701 53.2985C29.4117 53.2985 25.7164 56.9938 25.7164 61.5522C25.7164 66.1106 29.4117 69.806 33.9701 69.806Z" fill="#333333"/>
<path fill-rule="evenodd" clip-rule="evenodd" d="M31.6119 80.4179C42.6823 80.4179 51.6567 71.4436 51.6567 60.3731C51.6567 49.3027 42.6823 40.3284 31.6119 40.3284C20.5415 40.3284 11.5671 49.3027 11.5671 60.3731C11.5671 71.4436 20.5415 80.4179 31.6119 80.4179ZM31.6119 68.6269C36.1704 68.6269 39.8657 64.9315 39.8657 60.3731C39.8657 55.8147 36.1704 52.1194 31.6119 52.1194C27.0535 52.1194 23.3582 55.8147 23.3582 60.3731C23.3582 64.9315 27.0535 68.6269 31.6119 68.6269Z" fill="#FFE266"/>
<rect x="44.4868" y="53.2767" width="1.1791" height="4.71642" rx="0.589552" transform="rotate(25.7669 44.4868 53.2767)" fill="#FFC73C"/>
<rect x="34.4146" y="71.3726" width="1.1791" height="4.71642" rx="0.589552" transform="rotate(-56.4123 34.4146 71.3726)" fill="#FFC73C"/>
<rect x="19.23" y="70.9785" width="1.1791" height="4.71642" rx="0.589552" transform="rotate(-121.507 19.23 70.9785)" fill="#FFC73C"/>
<rect x="18.7131" y="50.5702" width="1.1791" height="4.71642" rx="0.589552" transform="rotate(-53.5713 18.7131 50.5702)" fill="#FFC73C"/>
<rect x="32.4731" y="44.8606" width="1.1791" height="3.03788" rx="0.589552" transform="rotate(37.9136 32.4731 44.8606)" fill="#FFF2B8"/>
<rect x="45.2153" y="68.6655" width="1.1791" height="3.03788" rx="0.589552" transform="rotate(99.0666 45.2153 68.6655)" fill="#FFF2B8"/>
<rect x="25.2961" y="73.7515" width="1.1791" height="3.03788" rx="0.589552" transform="rotate(33.4323 25.2961 73.7515)" fill="#FFF2B8"/>
<rect x="17.6104" y="58.3756" width="1.1791" height="3.03788" rx="0.589552" transform="rotate(154.953 17.6104 58.3756)" fill="#FFF2B8"/>
<rect x="39.8657" y="47.403" width="1.1791" height="1.1791" rx="0.589552" fill="white"/>
<rect x="19.8208" y="61.5522" width="1.1791" height="1.1791" rx="0.589552" fill="white"/>
<rect x="24.5374" y="45.0448" width="1.1791" height="1.1791" rx="0.589552" fill="white"/>
<rect x="31.6121" y="74.5223" width="1.1791" height="1.1791" rx="0.589552" fill="white"/>
<rect x="46.9402" y="62.7313" width="1.1791" height="1.1791" rx="0.589552" fill="white"/>
<path d="M76.4177 67.4478L94.1043 56.8358V79.7825C94.1043 83.126 92.4333 86.2483 89.6513 88.103L76.4177 96.9254V67.4478Z" fill="#45CCC3"/>
<path d="M4.49243 66.2687H78.776V93.1045C78.776 95.8659 76.5374 98.1045 73.776 98.1045H9.49242C6.731 98.1045 4.49243 95.8659 4.49243 93.1045V66.2687Z" fill="#45CCC3"/>
<path fill-rule="evenodd" clip-rule="evenodd" d="M22.585 98.1045C21.4132 90.544 22.7161 82.5482 26.8393 75.4068C28.8955 71.8452 31.4865 68.7849 34.4522 66.2687H78.776V93.1045C78.776 95.8659 76.5375 98.1045 73.776 98.1045H22.585Z" fill="url(#paint0_linear_2152_4467)"/>
<path d="M81.1343 59.194H112.97L109.578 102.157C109.496 103.198 108.628 104 107.584 104H86.5199C85.4764 104 84.6083 103.198 84.5261 102.157L81.1343 59.194Z" fill="#FFF2B8"/>
<path fill-rule="evenodd" clip-rule="evenodd" d="M101.689 104H107.584C108.628 104 109.496 103.198 109.578 102.157L112.97 59.194H107.075L103.683 102.157C103.601 103.198 102.732 104 101.689 104Z" fill="#FFE266"/>
<rect x="76.418" y="54.4777" width="40.0896" height="4.71642" rx="1" fill="#4D4D4D"/>
<path d="M83.2853 46.9492C83.4079 46.5199 83.8003 46.2239 84.2468 46.2239H108.678C109.125 46.2239 109.517 46.5199 109.64 46.9492L111.791 54.4776H81.1343L83.2853 46.9492Z" fill="#333333"/>
<path d="M90 74.6004C89.9999 74.122 90.0857 73.6484 90.2522 73.2073C90.4188 72.7661 90.6628 72.3663 90.9701 72.0311C91.2773 71.696 91.6416 71.4322 92.0417 71.2553C92.4417 71.0783 92.8695 70.9918 93.3 71.0006C93.8094 70.9976 94.3135 71.1149 94.779 71.3448C95.2445 71.5746 95.6607 71.9118 96 72.3339C96.3393 71.9118 96.7555 71.5746 97.221 71.3448C97.6865 71.1149 98.1906 70.9976 98.7 71.0006C99.1305 70.9918 99.5583 71.0783 99.9583 71.2553C100.358 71.4322 100.723 71.696 101.03 72.0311C101.337 72.3663 101.581 72.7661 101.748 73.2073C101.914 73.6484 102 74.122 102 74.6004C102 77.4614 99.5425 79.7609 97.4481 81.6592C96.6372 82.3942 95.366 82.3908 94.556 81.6547C92.4624 79.7519 90 77.4646 90 74.6004Z" fill="#FFC73C"/>
<defs>
<linearGradient id="paint0_linear_2152_4467" x1="75.2388" y1="86.3135" x2="22.3191" y2="76.1514" gradientUnits="userSpaceOnUse">
<stop stop-color="#00BAAE"/>
<stop offset="1" stop-color="#C6F2EF"/>
</linearGradient>
</defs>
</svg>
