<svg width="120" height="120" viewBox="0 0 120 120" fill="none" xmlns="http://www.w3.org/2000/svg">
<rect width="120" height="120" fill="white"/>
<path d="M84.9668 62.4644C84.9855 62.2027 85.2032 62 85.4656 62H86.5344C86.7968 62 87.0145 62.2027 87.0332 62.4644L87.9617 75.4644C87.9824 75.7538 87.7532 76 87.463 76H84.537C84.2468 76 84.0176 75.7538 84.0383 75.4644L84.9668 62.4644Z" fill="#FFE266"/>
<path fill-rule="evenodd" clip-rule="evenodd" d="M77 53H42L38.1394 75.1985C38.0473 75.4615 38 75.729 38 76C38 79.866 47.6259 83 59.5 83C71.3741 83 81 79.866 81 76C81 75.729 80.9527 75.4615 80.8606 75.1985L77 53Z" fill="#03968D"/>
<path fill-rule="evenodd" clip-rule="evenodd" d="M77.0345 53.1984C76.0416 53.0675 75.0287 53 74 53C61.2975 53 51 63.2975 51 76C51 78.2778 51.3311 80.4783 51.9479 82.556C54.2975 82.843 56.8424 83 59.5 83C71.3741 83 81 79.866 81 76C81 75.729 80.9527 75.4615 80.8606 75.1985L77.0345 53.1984Z" fill="url(#paint0_linear_2152_4550)"/>
<path d="M59.6687 39.2329C60.2119 39.0807 60.787 39.0848 61.3279 39.2446L94.1941 48.9553C95.1084 49.2254 95.162 50.5001 94.2737 50.8461L61.5604 63.587C60.8772 63.8531 60.1203 63.8598 59.4325 63.6058L24.8945 50.8531C23.9851 50.5173 24.0376 49.2136 24.9712 48.9521L59.6687 39.2329Z" fill="#03968D"/>
<path d="M59.6687 37.2329C60.2119 37.0807 60.787 37.0848 61.3279 37.2446L94.1941 46.9553C95.1084 47.2254 95.162 48.5001 94.2737 48.8461L61.5604 61.587C60.8772 61.8531 60.1203 61.8598 59.4325 61.6058L24.8945 48.8531C23.9851 48.5173 24.0376 47.2136 24.9712 46.9521L59.6687 37.2329Z" fill="#00BAAE"/>
<path fill-rule="evenodd" clip-rule="evenodd" d="M60 50C61.6569 50 63 49.3284 63 48.5V47.5C63 47.2239 62.7761 47 62.5 47H60H57.5C57.2239 47 57 47.2239 57 47.5V48.5C57 49.3284 58.3431 50 60 50Z" fill="#FFE266"/>
<path d="M63 48H83C84.6569 48 86 49.3431 86 51V61.5" stroke="#FFD72C" stroke-linecap="round" stroke-linejoin="round" stroke-dasharray="1 1"/>
<ellipse cx="60" cy="47.5" rx="3" ry="1.5" fill="#FFC73C"/>
<path fill-rule="evenodd" clip-rule="evenodd" d="M86 63C87.1046 63 88 62.5523 88 62V61H86H84V62C84 62.5523 84.8954 63 86 63Z" fill="#FFD72C"/>
<ellipse cx="86" cy="61" rx="2" ry="1" fill="#FFC73C"/>
<path d="M85 75L85.5 64" stroke="white" stroke-width="0.3" stroke-linecap="round" stroke-linejoin="round"/>
<path d="M87 75L86.5 64" stroke="white" stroke-width="0.3" stroke-linecap="round" stroke-linejoin="round"/>
<path d="M26.1008 17.9425C22.2342 20.3321 21.6726 23.193 22.0074 24.9195C22.0984 25.3884 22.5873 25.6312 23.0461 25.4983C26.5672 24.479 26.8119 22.6485 27.4832 18.9617C27.6308 18.1516 26.8012 17.5096 26.1008 17.9425Z" fill="#FFF2B8"/>
<path d="M15.9502 22.9067C13.79 26.906 14.7297 29.6659 15.8809 30.9955C16.1935 31.3567 16.7384 31.3233 17.0699 30.9794C19.6137 28.3401 18.9131 26.6314 17.6567 23.1009C17.3807 22.3251 16.3415 22.1822 15.9502 22.9067Z" fill="#FFE266"/>
<path d="M28.1073 29.3965C25.0599 32.7691 22.1446 32.8058 20.5068 32.1653C20.0619 31.9913 19.9112 31.4666 20.1246 31.0393C21.7619 27.7596 23.6065 27.8488 27.3539 27.853C28.1773 27.8539 28.6593 28.7855 28.1073 29.3965Z" fill="#FFF2B8"/>
<path d="M23.1557 35.997C21.302 40.1472 18.5413 41.0846 16.7855 40.9825C16.3087 40.9548 16.003 40.5025 16.0736 40.0301C16.6153 36.4047 18.3969 35.9185 21.9615 34.7625C22.7448 34.5084 23.4915 35.2452 23.1557 35.997Z" fill="#FFE266"/>
<path d="M10.2068 33.2745C9.56359 37.7742 11.4 40.0386 12.9401 40.8879C13.3584 41.1185 13.858 40.8988 14.0501 40.4614C15.5238 37.105 14.2753 35.7442 11.8752 32.8663C11.3478 32.2339 10.3234 32.4594 10.2068 33.2745Z" fill="#FFE266"/>
<path d="M7.72122 43.4023C7.42998 48.893 9.91655 51.2544 11.7985 51.9634C12.2413 52.1302 12.7055 51.8545 12.8511 51.4043C14.204 47.2221 12.5461 45.8899 9.34959 42.819C8.75696 42.2497 7.76475 42.5816 7.72122 43.4023Z" fill="#FFE266"/>
<path d="M21.261 43.4094C20.6282 48.8713 17.7811 50.7827 15.807 51.1663C15.3425 51.2566 14.9311 50.9071 14.8629 50.4388C14.2299 46.0891 16.0876 45.0535 19.7534 42.5616C20.433 42.0996 21.3556 42.5931 21.261 43.4094Z" fill="#FFE266"/>
<path d="M20.6666 53.0353C21.0098 58.5231 18.5457 60.9078 16.6705 61.6346C16.2293 61.8056 15.7626 61.5343 15.6127 61.0855C14.2203 56.9163 15.8655 55.5685 19.0328 52.4675C19.62 51.8926 20.6153 52.2151 20.6666 53.0353Z" fill="#FFE266"/>
<path d="M22.4337 62.9979C23.5707 68.3775 21.4793 71.095 19.7297 72.0866C19.318 72.3199 18.8168 72.1194 18.6033 71.6971C16.6198 67.7745 18.0517 66.2019 20.7347 62.6735C21.2321 62.0194 22.2637 62.1938 22.4337 62.9979Z" fill="#FFD72C"/>
<path d="M26.1901 71.6305C29.3315 76.1432 28.4629 79.4605 27.2372 81.0549C26.9488 81.4301 26.4091 81.4404 26.048 81.1346C22.6941 78.2934 23.4009 76.2875 24.4989 71.9931C24.7024 71.1969 25.7206 70.956 26.1901 71.6305Z" fill="#FFD72C"/>
<path d="M32.5556 80.1353C36.6319 83.8254 36.532 87.253 35.6966 89.0824C35.5 89.5128 34.9764 89.6444 34.5558 89.4276C30.6485 87.414 30.8859 85.3005 30.9893 80.8691C31.0085 80.0475 31.9463 79.5837 32.5556 80.1353Z" fill="#FFD72C"/>
<path d="M39.8516 85.6457C44.475 88.6219 44.9352 92.02 44.4092 93.961C44.2854 94.4178 43.7903 94.6329 43.34 94.4876C39.1567 93.138 39.0463 91.014 38.4259 86.6251C38.3109 85.8114 39.1606 85.2009 39.8516 85.6457Z" fill="#FFC73C"/>
<path d="M6.46029 55.7428C7.579 61.1263 10.5856 62.7754 12.5861 62.9809C13.0568 63.0293 13.4353 62.6444 13.4613 62.1719C13.7029 57.783 11.76 56.9177 7.88607 54.7636C7.16784 54.3642 6.29309 54.9382 6.46029 55.7428Z" fill="#FFD72C"/>
<path d="M8.3379 68.7608C11.2651 73.4153 14.6582 73.9114 16.6047 73.4059C17.0627 73.2869 17.2831 72.7941 17.1425 72.3422C15.8371 68.145 13.7144 68.0122 9.33226 67.3455C8.51981 67.222 7.90039 68.0652 8.3379 68.7608Z" fill="#FFD72C"/>
<path d="M15.3018 80.5994C18.8308 84.816 22.2597 84.8493 24.1201 84.0855C24.5579 83.9058 24.7097 83.3877 24.5094 82.959C22.6491 78.9765 20.5279 79.1315 16.0959 79.0628C15.2742 79.0501 14.7743 79.9692 15.3018 80.5994Z" fill="#FFD72C"/>
<path d="M22.9512 90.9764C27.3986 94.2095 30.733 93.409 32.3522 92.2162C32.7332 91.9356 32.7546 91.3961 32.4562 91.0289C29.6843 87.6175 27.6643 88.2831 23.3483 89.2929C22.5481 89.4802 22.2865 90.4932 22.9512 90.9764Z" fill="#FFC73C"/>
<path d="M33.3071 98.7357C38.3855 100.844 41.4416 99.2881 42.7383 97.7509C43.0434 97.3892 42.9385 96.8597 42.5628 96.572C39.0723 93.9004 37.263 95.0183 33.3011 97.006C32.5665 97.3745 32.5481 98.4206 33.3071 98.7357Z" fill="#FFC73C"/>
<path d="M94.8279 17.9425C98.6946 20.3321 99.2562 23.193 98.9213 24.9195C98.8303 25.3884 98.3414 25.6312 97.8826 25.4983C94.3616 24.479 94.1168 22.6485 93.4455 18.9617C93.2979 18.1516 94.1275 17.5096 94.8279 17.9425Z" fill="#FFF2B8"/>
<path d="M104.979 22.9067C107.139 26.906 106.199 29.6659 105.048 30.9955C104.735 31.3567 104.19 31.3233 103.859 30.9794C101.315 28.3401 102.016 26.6314 103.272 23.1009C103.548 22.3251 104.587 22.1822 104.979 22.9067Z" fill="#FFE266"/>
<path d="M92.8215 29.3965C95.8688 32.7691 98.7841 32.8058 100.422 32.1653C100.867 31.9913 101.017 31.4666 100.804 31.0393C99.1668 27.7596 97.3222 27.8488 93.5748 27.853C92.7514 27.8539 92.2694 28.7855 92.8215 29.3965Z" fill="#FFF2B8"/>
<path d="M97.773 35.997C99.6267 40.1472 102.387 41.0846 104.143 40.9825C104.62 40.9548 104.926 40.5025 104.855 40.0301C104.313 36.4047 102.532 35.9185 98.9672 34.7625C98.1839 34.5084 97.4372 35.2452 97.773 35.997Z" fill="#FFE266"/>
<path d="M110.722 33.2745C111.365 37.7742 109.529 40.0386 107.989 40.8879C107.57 41.1185 107.071 40.8988 106.879 40.4614C105.405 37.105 106.653 35.7442 109.054 32.8663C109.581 32.2339 110.605 32.4594 110.722 33.2745Z" fill="#FFE266"/>
<path d="M113.207 43.4023C113.499 48.893 111.012 51.2544 109.13 51.9634C108.687 52.1302 108.223 51.8545 108.078 51.4043C106.725 47.2221 108.383 45.8899 111.579 42.819C112.172 42.2497 113.164 42.5816 113.207 43.4023Z" fill="#FFE266"/>
<path d="M99.6677 43.4094C100.301 48.8713 103.148 50.7827 105.122 51.1663C105.586 51.2566 105.998 50.9071 106.066 50.4388C106.699 46.0891 104.841 45.0535 101.175 42.5616C100.496 42.0996 99.5731 42.5931 99.6677 43.4094Z" fill="#FFE266"/>
<path d="M100.262 53.0353C99.9189 58.5231 102.383 60.9078 104.258 61.6346C104.699 61.8056 105.166 61.5343 105.316 61.0855C106.708 56.9163 105.063 55.5685 101.896 52.4675C101.309 51.8926 100.313 52.2151 100.262 53.0353Z" fill="#FFE266"/>
<path d="M98.495 62.9979C97.358 68.3775 99.4494 71.095 101.199 72.0866C101.611 72.3199 102.112 72.1194 102.325 71.6971C104.309 67.7745 102.877 66.2019 100.194 62.6735C99.6966 62.0194 98.665 62.1938 98.495 62.9979Z" fill="#FFD72C"/>
<path d="M94.7386 71.6305C91.5972 76.1432 92.4658 79.4605 93.6915 81.0549C93.9799 81.4301 94.5196 81.4404 94.8807 81.1346C98.2346 78.2934 97.5278 76.2875 96.4298 71.9931C96.2263 71.1969 95.2081 70.956 94.7386 71.6305Z" fill="#FFD72C"/>
<path d="M88.3731 80.1353C84.2968 83.8254 84.3967 87.253 85.2321 89.0824C85.4287 89.5128 85.9523 89.6444 86.3729 89.4276C90.2802 87.414 90.0429 85.3005 89.9394 80.8691C89.9202 80.0475 88.9824 79.5837 88.3731 80.1353Z" fill="#FFD72C"/>
<path d="M81.0771 85.6457C76.4537 88.6219 75.9935 92.02 76.5195 93.961C76.6433 94.4178 77.1384 94.6329 77.5887 94.4876C81.772 93.138 81.8824 91.014 82.5028 86.6251C82.6178 85.8114 81.7681 85.2009 81.0771 85.6457Z" fill="#FFC73C"/>
<path d="M114.468 55.7428C113.35 61.1263 110.343 62.7754 108.343 62.9809C107.872 63.0293 107.493 62.6444 107.467 62.1719C107.226 57.783 109.169 56.9177 113.043 54.7636C113.761 54.3642 114.636 54.9382 114.468 55.7428Z" fill="#FFD72C"/>
<path d="M112.591 68.7608C109.664 73.4153 106.271 73.9114 104.324 73.4059C103.866 73.2869 103.646 72.7941 103.786 72.3422C105.092 68.145 107.214 68.0122 111.596 67.3455C112.409 67.222 113.028 68.0652 112.591 68.7608Z" fill="#FFD72C"/>
<path d="M105.627 80.5994C102.098 84.816 98.669 84.8493 96.8086 84.0855C96.3708 83.9058 96.219 83.3877 96.4193 82.959C98.2796 78.9765 100.401 79.1315 104.833 79.0628C105.654 79.0501 106.154 79.9692 105.627 80.5994Z" fill="#FFD72C"/>
<path d="M97.9775 90.9764C93.5301 94.2095 90.1957 93.409 88.5765 92.2162C88.1955 91.9356 88.1741 91.3961 88.4725 91.0289C91.2444 87.6175 93.2644 88.2831 97.5804 89.2929C98.3806 89.4802 98.6423 90.4932 97.9775 90.9764Z" fill="#FFC73C"/>
<path d="M87.6216 98.7357C82.5432 100.844 79.4871 99.2881 78.1904 97.7509C77.8853 97.3892 77.9902 96.8597 78.3659 96.572C81.8564 93.9004 83.6657 95.0183 87.6276 97.006C88.3622 97.3745 88.3806 98.4206 87.6216 98.7357Z" fill="#FFC73C"/>
<defs>
<linearGradient id="paint0_linear_2152_4550" x1="70.7929" y1="102.407" x2="71.2109" y2="53.0035" gradientUnits="userSpaceOnUse">
<stop stop-color="#00BAAE"/>
<stop offset="1" stop-color="#C6F2EF"/>
</linearGradient>
</defs>
</svg>
