<svg width="154" height="218" viewBox="0 0 154 218" fill="none" xmlns="http://www.w3.org/2000/svg">
<rect width="154" height="218" rx="12" fill="white"/>
<rect width="120" height="120" transform="translate(17 49)" fill="white"/>
<path d="M101.967 111.464C101.986 111.203 102.203 111 102.466 111H103.534C103.797 111 104.014 111.203 104.033 111.464L104.962 124.464C104.982 124.754 104.753 125 104.463 125H101.537C101.247 125 101.018 124.754 101.038 124.464L101.967 111.464Z" fill="#FFE266"/>
<path fill-rule="evenodd" clip-rule="evenodd" d="M94 102H59L55.1394 124.199C55.0473 124.462 55 124.729 55 125C55 128.866 64.6259 132 76.5 132C88.3741 132 98 128.866 98 125C98 124.729 97.9527 124.462 97.8606 124.199L94 102Z" fill="#03968D"/>
<path fill-rule="evenodd" clip-rule="evenodd" d="M94.0345 102.198C93.0416 102.068 92.0287 102 91 102C78.2975 102 68 112.297 68 125C68 127.278 68.3311 129.478 68.9479 131.556C71.2975 131.843 73.8424 132 76.5 132C88.3741 132 98 128.866 98 125C98 124.729 97.9527 124.462 97.8606 124.199L94.0345 102.198Z" fill="url(#paint0_linear_1_146)"/>
<path d="M76.6687 88.2329C77.2119 88.0807 77.787 88.0848 78.3279 88.2446L111.194 97.9553C112.108 98.2254 112.162 99.5001 111.274 99.8461L78.5604 112.587C77.8772 112.853 77.1203 112.86 76.4325 112.606L41.8945 99.8531C40.9851 99.5173 41.0376 98.2136 41.9712 97.9521L76.6687 88.2329Z" fill="#03968D"/>
<path d="M76.6687 86.2329C77.2119 86.0807 77.787 86.0848 78.3279 86.2446L111.194 95.9553C112.108 96.2254 112.162 97.5001 111.274 97.8461L78.5604 110.587C77.8772 110.853 77.1203 110.86 76.4325 110.606L41.8945 97.8531C40.9851 97.5173 41.0376 96.2136 41.9712 95.9521L76.6687 86.2329Z" fill="#00BAAE"/>
<path fill-rule="evenodd" clip-rule="evenodd" d="M77 99C78.6569 99 80 98.3284 80 97.5V96.5C80 96.2239 79.7761 96 79.5 96H77H74.5C74.2239 96 74 96.2239 74 96.5V97.5C74 98.3284 75.3431 99 77 99Z" fill="#FFE266"/>
<path d="M80 97H100C101.657 97 103 98.3431 103 100V110.5" stroke="#FFD72C" stroke-linecap="round" stroke-linejoin="round" stroke-dasharray="1 1"/>
<ellipse cx="77" cy="96.5" rx="3" ry="1.5" fill="#FFC73C"/>
<path fill-rule="evenodd" clip-rule="evenodd" d="M103 112C104.105 112 105 111.552 105 111V110H103H101V111C101 111.552 101.895 112 103 112Z" fill="#FFD72C"/>
<ellipse cx="103" cy="110" rx="2" ry="1" fill="#FFC73C"/>
<path d="M102 124L102.5 113" stroke="white" stroke-width="0.3" stroke-linecap="round" stroke-linejoin="round"/>
<path d="M104 124L103.5 113" stroke="white" stroke-width="0.3" stroke-linecap="round" stroke-linejoin="round"/>
<path d="M43.1007 66.9425C39.2341 69.3321 38.6725 72.193 39.0074 73.9195C39.0983 74.3884 39.5872 74.6312 40.046 74.4983C43.5671 73.479 43.8118 71.6485 44.4832 67.9617C44.6307 67.1516 43.8012 66.5096 43.1007 66.9425Z" fill="#FFF2B8"/>
<path d="M32.95 71.9067C30.7899 75.906 31.7296 78.6659 32.8808 79.9955C33.1934 80.3567 33.7383 80.3233 34.0697 79.9794C36.6136 77.3401 35.913 75.6314 34.6566 72.1009C34.3806 71.3251 33.3414 71.1822 32.95 71.9067Z" fill="#FFE266"/>
<path d="M45.1073 78.3965C42.0599 81.7691 39.1447 81.8058 37.5068 81.1652C37.0619 80.9913 36.9113 80.4666 37.1246 80.0392C38.7619 76.7596 40.6065 76.8488 44.3539 76.8529C45.1773 76.8538 45.6593 77.7855 45.1073 78.3965Z" fill="#FFF2B8"/>
<path d="M40.1555 84.9971C38.3018 89.1473 35.5411 90.0846 33.7854 89.9825C33.3085 89.9548 33.0028 89.5026 33.0734 89.0301C33.6151 85.4047 35.3967 84.9186 38.9613 83.7625C39.7446 83.5085 40.4913 84.2452 40.1555 84.9971Z" fill="#FFE266"/>
<path d="M27.2066 82.2745C26.5634 86.7742 28.3998 89.0386 29.9399 89.8879C30.3582 90.1185 30.8578 89.8988 31.0499 89.4614C32.5236 86.105 31.2751 84.7442 28.875 81.8663C28.3476 81.2339 27.3231 81.4594 27.2066 82.2745Z" fill="#FFE266"/>
<path d="M24.7212 92.4023C24.43 97.893 26.9165 100.254 28.7985 100.963C29.2413 101.13 29.7055 100.855 29.8511 100.404C31.204 96.2221 29.5461 94.8899 26.3496 91.819C25.757 91.2497 24.7648 91.5816 24.7212 92.4023Z" fill="#FFE266"/>
<path d="M38.2612 92.4094C37.6284 97.8713 34.7813 99.7826 32.8072 100.166C32.3427 100.257 31.9313 99.9071 31.8631 99.4388C31.2301 95.089 33.0878 94.0535 36.7536 91.5616C37.4332 91.0996 38.3558 91.593 38.2612 92.4094Z" fill="#FFE266"/>
<path d="M37.6667 102.035C38.0099 107.523 35.5458 109.908 33.6707 110.635C33.2294 110.806 32.7627 110.534 32.6128 110.086C31.2204 105.916 32.8656 104.569 36.0329 101.468C36.6201 100.893 37.6154 101.215 37.6667 102.035Z" fill="#FFE266"/>
<path d="M39.4337 111.998C40.5708 117.377 38.4794 120.095 36.7297 121.087C36.318 121.32 35.8168 121.119 35.6033 120.697C33.6198 116.774 35.0517 115.202 37.7347 111.674C38.2322 111.019 39.2638 111.194 39.4337 111.998Z" fill="#FFD72C"/>
<path d="M43.1902 120.63C46.3316 125.143 45.463 128.46 44.2373 130.055C43.9489 130.43 43.4092 130.44 43.0481 130.135C39.6941 127.293 40.401 125.287 41.4989 120.993C41.7025 120.197 42.7207 119.956 43.1902 120.63Z" fill="#FFD72C"/>
<path d="M49.5556 129.135C53.6319 132.825 53.532 136.253 52.6966 138.082C52.5 138.513 51.9764 138.644 51.5558 138.428C47.6485 136.414 47.8859 134.3 47.9893 129.869C48.0085 129.048 48.9463 128.584 49.5556 129.135Z" fill="#FFD72C"/>
<path d="M56.8515 134.646C61.4749 137.622 61.9351 141.02 61.4091 142.961C61.2853 143.418 60.7902 143.633 60.3398 143.488C56.1566 142.138 56.0462 140.014 55.4258 135.625C55.3108 134.811 56.1605 134.201 56.8515 134.646Z" fill="#FFC73C"/>
<path d="M23.4603 104.743C24.579 110.126 27.5856 111.775 29.5861 111.981C30.0568 112.029 30.4353 111.644 30.4613 111.172C30.7029 106.783 28.76 105.918 24.8861 103.764C24.1678 103.364 23.2931 103.938 23.4603 104.743Z" fill="#FFD72C"/>
<path d="M25.3381 117.761C28.2654 122.415 31.6584 122.911 33.6049 122.406C34.0629 122.287 34.2833 121.794 34.1427 121.342C32.8373 117.145 30.7146 117.012 26.3325 116.346C25.52 116.222 24.9006 117.065 25.3381 117.761Z" fill="#FFD72C"/>
<path d="M32.3015 129.599C35.8305 133.816 39.2595 133.849 41.1199 133.086C41.5577 132.906 41.7095 132.388 41.5092 131.959C39.6489 127.977 37.5277 128.132 33.0957 128.063C32.274 128.05 31.7741 128.969 32.3015 129.599Z" fill="#FFD72C"/>
<path d="M39.9512 139.976C44.3986 143.21 47.733 142.409 49.3522 141.216C49.7332 140.936 49.7546 140.396 49.4562 140.029C46.6843 136.618 44.6643 137.283 40.3483 138.293C39.5481 138.48 39.2865 139.493 39.9512 139.976Z" fill="#FFC73C"/>
<path d="M50.307 147.736C55.3854 149.844 58.4415 148.288 59.7382 146.751C60.0433 146.389 59.9385 145.86 59.5627 145.572C56.0722 142.9 54.2629 144.018 50.301 146.006C49.5665 146.375 49.548 147.421 50.307 147.736Z" fill="#FFC73C"/>
<path d="M111.828 66.9425C115.695 69.3321 116.256 72.193 115.921 73.9195C115.83 74.3884 115.342 74.6312 114.883 74.4983C111.362 73.479 111.117 71.6485 110.446 67.9617C110.298 67.1516 111.128 66.5096 111.828 66.9425Z" fill="#FFF2B8"/>
<path d="M121.979 71.9067C124.139 75.906 123.199 78.6659 122.048 79.9955C121.735 80.3567 121.19 80.3233 120.859 79.9794C118.315 77.3401 119.016 75.6314 120.272 72.1009C120.548 71.3251 121.587 71.1822 121.979 71.9067Z" fill="#FFE266"/>
<path d="M109.821 78.3965C112.869 81.7691 115.784 81.8058 117.422 81.1652C117.867 80.9913 118.017 80.4666 117.804 80.0392C116.167 76.7596 114.322 76.8488 110.575 76.8529C109.751 76.8538 109.269 77.7855 109.821 78.3965Z" fill="#FFF2B8"/>
<path d="M114.773 84.9971C116.627 89.1473 119.388 90.0846 121.143 89.9825C121.62 89.9548 121.926 89.5026 121.855 89.0301C121.314 85.4047 119.532 84.9186 115.967 83.7625C115.184 83.5085 114.437 84.2452 114.773 84.9971Z" fill="#FFE266"/>
<path d="M127.722 82.2745C128.365 86.7742 126.529 89.0386 124.989 89.8879C124.571 90.1185 124.071 89.8988 123.879 89.4614C122.405 86.105 123.654 84.7442 126.054 81.8663C126.581 81.2339 127.606 81.4594 127.722 82.2745Z" fill="#FFE266"/>
<path d="M130.207 92.4023C130.499 97.893 128.012 100.254 126.13 100.963C125.687 101.13 125.223 100.855 125.078 100.404C123.725 96.2221 125.383 94.8899 128.579 91.819C129.172 91.2497 130.164 91.5816 130.207 92.4023Z" fill="#FFE266"/>
<path d="M116.668 92.4094C117.3 97.8713 120.147 99.7826 122.122 100.166C122.586 100.257 122.997 99.9071 123.066 99.4388C123.699 95.089 121.841 94.0535 118.175 91.5616C117.495 91.0996 116.573 91.593 116.668 92.4094Z" fill="#FFE266"/>
<path d="M117.262 102.035C116.919 107.523 119.383 109.908 121.258 110.635C121.699 110.806 122.166 110.534 122.316 110.086C123.708 105.916 122.063 104.569 118.896 101.468C118.309 100.893 117.313 101.215 117.262 102.035Z" fill="#FFE266"/>
<path d="M115.495 111.998C114.358 117.377 116.449 120.095 118.199 121.087C118.611 121.32 119.112 121.119 119.325 120.697C121.309 116.774 119.877 115.202 117.194 111.674C116.697 111.019 115.665 111.194 115.495 111.998Z" fill="#FFD72C"/>
<path d="M111.739 120.63C108.597 125.143 109.466 128.46 110.691 130.055C110.98 130.43 111.52 130.44 111.881 130.135C115.235 127.293 114.528 125.287 113.43 120.993C113.226 120.197 112.208 119.956 111.739 120.63Z" fill="#FFD72C"/>
<path d="M105.373 129.135C101.297 132.825 101.397 136.253 102.232 138.082C102.429 138.513 102.952 138.644 103.373 138.428C107.28 136.414 107.043 134.3 106.939 129.869C106.92 129.048 105.982 128.584 105.373 129.135Z" fill="#FFD72C"/>
<path d="M98.0772 134.646C93.4539 137.622 92.9936 141.02 93.5196 142.961C93.6434 143.418 94.1385 143.633 94.5889 143.488C98.7721 142.138 98.8825 140.014 99.5029 135.625C99.6179 134.811 98.7683 134.201 98.0772 134.646Z" fill="#FFC73C"/>
<path d="M131.468 104.743C130.35 110.126 127.343 111.775 125.343 111.981C124.872 112.029 124.493 111.644 124.467 111.172C124.226 106.783 126.169 105.918 130.043 103.764C130.761 103.364 131.636 103.938 131.468 104.743Z" fill="#FFD72C"/>
<path d="M129.591 117.761C126.663 122.415 123.27 122.911 121.324 122.406C120.866 122.287 120.645 121.794 120.786 121.342C122.091 117.145 124.214 117.012 128.596 116.346C129.409 116.222 130.028 117.065 129.591 117.761Z" fill="#FFD72C"/>
<path d="M122.627 129.599C119.098 133.816 115.669 133.849 113.809 133.086C113.371 132.906 113.219 132.388 113.42 131.959C115.28 127.977 117.401 128.132 121.833 128.063C122.655 128.05 123.155 128.969 122.627 129.599Z" fill="#FFD72C"/>
<path d="M114.978 139.976C110.53 143.21 107.196 142.409 105.577 141.216C105.196 140.936 105.174 140.396 105.473 140.029C108.244 136.618 110.264 137.283 114.58 138.293C115.381 138.48 115.642 139.493 114.978 139.976Z" fill="#FFC73C"/>
<path d="M104.622 147.736C99.5433 149.844 96.4872 148.288 95.1905 146.751C94.8854 146.389 94.9903 145.86 95.366 145.572C98.8565 142.9 100.666 144.018 104.628 146.006C105.362 146.375 105.381 147.421 104.622 147.736Z" fill="#FFC73C"/>
<defs>
<linearGradient id="paint0_linear_1_146" x1="87.7929" y1="151.407" x2="88.2109" y2="102.004" gradientUnits="userSpaceOnUse">
<stop stop-color="#00BAAE"/>
<stop offset="1" stop-color="#C6F2EF"/>
</linearGradient>
</defs>
</svg>
