<svg width="20" height="20" viewBox="0 0 20 20" fill="none" xmlns="http://www.w3.org/2000/svg">
<path d="M2.00001 19C2.07972 19.0096 2.1603 19.0096 2.24001 19L6.24001 18C6.41746 17.9578 6.57999 17.8679 6.71001 17.74L19 5.41C19.3725 5.03527 19.5816 4.52837 19.5816 3.99999C19.5816 3.47162 19.3725 2.96472 19 2.59L17.42 0.999995C17.2343 0.814042 17.0137 0.666524 16.7709 0.565876C16.5281 0.465227 16.2678 0.413422 16.005 0.413422C15.7422 0.413422 15.4819 0.465227 15.2391 0.565876C14.9963 0.666524 14.7758 0.814042 14.59 0.999995L2.30001 13.29C2.1708 13.4206 2.07776 13.5826 2.03001 13.76L1.03001 17.76C0.994071 17.8894 0.984558 18.0247 1.00204 18.1578C1.01953 18.291 1.06365 18.4192 1.13177 18.535C1.1999 18.6507 1.29064 18.7515 1.39858 18.8314C1.50651 18.9113 1.62944 18.9686 1.76001 19C1.83972 19.0096 1.9203 19.0096 2.00001 19ZM16 2.40999L17.59 3.99999L16 5.59L14.42 3.99999L16 2.40999ZM3.91001 14.51L13 5.41L14.59 7L5.49001 16.1L3.38001 16.62L3.91001 14.51Z" fill="#191919"/>
</svg>
