<svg width="120" height="120" viewBox="0 0 120 120" fill="none" xmlns="http://www.w3.org/2000/svg">
<rect width="120" height="120" fill="white"/>
<path d="M23.6035 67.0723C22.7741 68.4303 21.7396 69.1094 20.5 69.1094C19.7799 69.1094 19.2057 68.8952 18.7773 68.4668C18.3581 68.0293 18.1484 67.4505 18.1484 66.7305C18.1484 66.5664 18.5677 63.4948 19.4062 57.5156H18.2305L18.3125 57.0508H20.1035C21.1517 57.0508 22.0404 56.9733 22.7695 56.8184L21.457 65.9785C21.3568 66.6439 21.3066 67.0358 21.3066 67.1543C21.3066 67.6374 21.5527 67.8789 22.0449 67.8789C22.3366 67.8789 22.6738 67.6146 23.0566 67.0859C23.4395 66.5482 23.6764 65.9375 23.7676 65.2539L24.957 57.0508H28.1973L26.8301 66.5117C26.7754 66.7852 26.748 67.0723 26.748 67.373C26.748 67.5645 26.7936 67.724 26.8848 67.8516C26.9759 67.9792 27.0898 68.043 27.2266 68.043C27.4727 68.043 27.7142 67.8971 27.9512 67.6055C28.1973 67.3047 28.3932 66.89 28.5391 66.3613H29.0176C28.4889 68.2298 27.4863 69.1641 26.0098 69.1641C25.4173 69.1641 24.8932 68.9818 24.4375 68.6172C23.9818 68.2526 23.7038 67.7376 23.6035 67.0723Z" fill="#00BAAE"/>
<path d="M34.3294 58.582C35.1953 57.3151 36.1933 56.6816 37.3235 56.6816C38.0162 56.6816 38.5813 56.9095 39.0188 57.3652C39.4563 57.8118 39.6751 58.3861 39.6751 59.0879C39.6751 59.2611 39.3287 61.7357 38.636 66.5117C38.5813 66.7852 38.554 67.0723 38.554 67.373C38.554 67.5645 38.5996 67.724 38.6907 67.8516C38.791 67.9792 38.9049 68.043 39.0325 68.043C39.2786 68.043 39.5201 67.8971 39.7571 67.6055C40.0032 67.3047 40.1992 66.89 40.345 66.3613H40.8235C40.2949 68.2298 39.2968 69.1641 37.8294 69.1641C37.1458 69.1641 36.567 68.9408 36.093 68.4941C35.6282 68.0384 35.3958 67.4232 35.3958 66.6484C35.3958 66.4206 35.7467 63.8275 36.4485 58.8691C36.4759 58.7233 36.4895 58.5911 36.4895 58.4727C36.4895 58.026 36.2981 57.8027 35.9153 57.8027C35.5963 57.8027 35.2226 58.0579 34.7942 58.5684C34.3749 59.0788 34.1061 59.7988 33.9876 60.7285L32.8391 69H29.5989L31.2122 57.5156H30.0364L30.1184 57.0508H31.9231C32.9622 57.0508 33.8463 56.9733 34.5755 56.8184L34.3294 58.582Z" fill="#00BAAE"/>
<path d="M44.0572 69.1641C43.3827 69.1641 42.8085 68.9408 42.3345 68.4941C41.8606 68.0384 41.6236 67.4232 41.6236 66.6484C41.6236 66.4023 41.6555 66.0833 41.7193 65.6914L42.8814 57.5156H41.7056L41.7877 57.0508H43.5923C44.6314 57.0508 45.5155 56.9733 46.2447 56.8184L44.8775 66.5117C44.8228 66.7852 44.7955 67.0723 44.7955 67.373C44.7955 67.5645 44.841 67.724 44.9322 67.8516C45.0233 67.9792 45.1327 68.043 45.2603 68.043C45.5155 68.043 45.7616 67.8971 45.9986 67.6055C46.2447 67.3047 46.4407 66.89 46.5865 66.3613H47.065C46.5272 68.2298 45.5246 69.1641 44.0572 69.1641ZM43.1138 53.0996C43.1138 52.5892 43.2916 52.1608 43.647 51.8145C44.0025 51.459 44.4309 51.2812 44.9322 51.2812C45.4335 51.2812 45.8619 51.459 46.2173 51.8145C46.5728 52.1699 46.7505 52.5983 46.7505 53.0996C46.7505 53.6009 46.5728 54.0293 46.2173 54.3848C45.8619 54.7402 45.4335 54.918 44.9322 54.918C44.4309 54.918 44.0025 54.7402 43.647 54.3848C43.2916 54.0293 43.1138 53.6009 43.1138 53.0996Z" fill="#00BAAE"/>
<path d="M55.4464 69.1641C54.7719 69.1641 54.1977 68.9408 53.7238 68.4941C53.2498 68.0384 53.0128 67.4232 53.0128 66.6484C53.0128 66.4297 53.031 66.1882 53.0675 65.9238L55.0636 51.8965H53.8878L53.9698 51.418H55.7609C56.7999 51.418 57.684 51.3405 58.4132 51.1855L56.2667 66.5117C56.212 66.9036 56.1847 67.1908 56.1847 67.373C56.1847 67.5645 56.2303 67.724 56.3214 67.8516C56.4126 67.9792 56.5219 68.043 56.6495 68.043C56.9047 68.043 57.1508 67.8971 57.3878 67.6055C57.6339 67.3047 57.8299 66.89 57.9757 66.3613H58.4542C57.9165 68.2298 56.9139 69.1641 55.4464 69.1641Z" fill="#00BAAE"/>
<path d="M62.6312 63.2578C63.6065 62.9479 64.3448 62.3828 64.8461 61.5625C65.3474 60.7422 65.598 59.7578 65.598 58.6094C65.598 57.6797 65.3747 57.2148 64.9281 57.2148C64.4906 57.2148 64.1078 57.4473 63.7797 57.9121C63.4516 58.3678 63.2374 58.9557 63.1371 59.6758L62.6312 63.2578ZM63.1098 69.1914C61.9796 69.1914 60.9997 68.7129 60.1703 67.7559C59.35 66.7897 58.9398 65.6003 58.9398 64.1875C58.9398 62.2461 59.5733 60.5143 60.8402 58.9922C62.1163 57.4701 63.6111 56.709 65.3246 56.709C66.4092 56.709 67.2523 56.9414 67.8539 57.4062C68.4555 57.8711 68.7562 58.4772 68.7562 59.2246C68.7562 61.3848 66.6872 62.916 62.5492 63.8184C62.2484 65.9603 62.098 67.1543 62.098 67.4004C62.098 67.7923 62.1937 68.1068 62.3852 68.3438C62.5857 68.5716 62.8546 68.6855 63.1918 68.6855C65.2426 68.6855 66.6508 67.446 67.4164 64.9668H67.8676C67.1111 67.7832 65.5251 69.1914 63.1098 69.1914Z" fill="#00BAAE"/>
<path d="M72.6188 69.1641C71.9352 69.1641 71.3565 68.9408 70.8825 68.4941C70.4177 68.0384 70.1852 67.4232 70.1852 66.6484C70.1852 66.4297 70.5954 63.349 71.4157 57.4062H69.9802L70.0622 56.9277H71.4704L71.8669 54.1387L75.1891 53.5781L74.7106 56.9277H76.1462L76.0641 57.4062H74.6559L73.3981 66.5117C73.3434 66.7852 73.3161 67.0723 73.3161 67.373C73.3161 67.5645 73.3617 67.724 73.4528 67.8516C73.5531 67.9792 73.667 68.043 73.7946 68.043C74.0407 68.043 74.2822 67.8971 74.5192 67.6055C74.7653 67.3047 74.9613 66.89 75.1071 66.3613H75.5856C75.057 68.2298 74.068 69.1641 72.6188 69.1641Z" fill="#00BAAE"/>
<path d="M79.6123 69.1641C78.9287 69.1641 78.3499 68.9408 77.8759 68.4941C77.4111 68.0384 77.1787 67.4232 77.1787 66.6484C77.1787 66.4297 77.5888 63.349 78.4091 57.4062H76.9736L77.0556 56.9277H78.4638L78.8603 54.1387L82.1826 53.5781L81.7041 56.9277H83.1396L83.0576 57.4062H81.6494L80.3916 66.5117C80.3369 66.7852 80.3095 67.0723 80.3095 67.373C80.3095 67.5645 80.3551 67.724 80.4463 67.8516C80.5465 67.9792 80.6604 68.043 80.788 68.043C81.0341 68.043 81.2757 67.8971 81.5127 67.6055C81.7588 67.3047 81.9547 66.89 82.1005 66.3613H82.5791C82.0504 68.2298 81.0615 69.1641 79.6123 69.1641Z" fill="#00BAAE"/>
<path d="M87.2483 63.2578C88.2235 62.9479 88.9618 62.3828 89.4631 61.5625C89.9644 60.7422 90.2151 59.7578 90.2151 58.6094C90.2151 57.6797 89.9918 57.2148 89.5452 57.2148C89.1077 57.2148 88.7248 57.4473 88.3967 57.9121C88.0686 58.3678 87.8544 58.9557 87.7541 59.6758L87.2483 63.2578ZM87.7268 69.1914C86.5966 69.1914 85.6168 68.7129 84.7873 67.7559C83.967 66.7897 83.5569 65.6003 83.5569 64.1875C83.5569 62.2461 84.1903 60.5143 85.4573 58.9922C86.7333 57.4701 88.2281 56.709 89.9416 56.709C91.0263 56.709 91.8694 56.9414 92.4709 57.4062C93.0725 57.8711 93.3733 58.4772 93.3733 59.2246C93.3733 61.3848 91.3043 62.916 87.1663 63.8184C86.8655 65.9603 86.7151 67.1543 86.7151 67.4004C86.7151 67.7923 86.8108 68.1068 87.0022 68.3438C87.2027 68.5716 87.4716 68.6855 87.8088 68.6855C89.8596 68.6855 91.2678 67.446 92.0334 64.9668H92.4846C91.7281 67.7832 90.1422 69.1914 87.7268 69.1914Z" fill="#00BAAE"/>
<path d="M98.8902 58.8418C99.5646 57.4928 100.44 56.8184 101.515 56.8184C102.08 56.8184 102.522 56.9779 102.841 57.2969C103.169 57.6159 103.334 58.0443 103.334 58.582C103.334 59.1471 103.156 59.6302 102.8 60.0312C102.454 60.4323 102.016 60.6328 101.488 60.6328C101.114 60.6328 100.804 60.5143 100.558 60.2773C100.321 60.0312 100.203 59.7396 100.203 59.4023C100.203 58.819 100.494 58.2995 101.078 57.8438C101.205 57.7435 101.269 57.6751 101.269 57.6387C101.269 57.502 101.164 57.4336 100.955 57.4336C100.526 57.4336 100.034 57.8574 99.4781 58.7051C98.9312 59.5527 98.5712 60.6009 98.398 61.8496L97.3999 69H94.1597L95.773 57.5156H94.5972L94.6792 57.0508H96.4839C97.5047 57.0508 98.3797 56.9733 99.1089 56.8184L98.8355 58.8418H98.8902Z" fill="#00BAAE"/>
</svg>
