<svg width="14" height="13" viewBox="0 0 14 13" fill="none" xmlns="http://www.w3.org/2000/svg">
<path d="M5.00004 0.333344L3.78004 1.66668H1.66671C0.933374 1.66668 0.333374 2.26668 0.333374 3.00001V11C0.333374 11.7333 0.933374 12.3333 1.66671 12.3333H12.3334C13.0667 12.3333 13.6667 11.7333 13.6667 11V3.00001C13.6667 2.26668 13.0667 1.66668 12.3334 1.66668H10.22L9.00004 0.333344H5.00004ZM7.00004 10.3333C5.16004 10.3333 3.66671 8.84001 3.66671 7.00001C3.66671 5.16001 5.16004 3.66668 7.00004 3.66668C8.84004 3.66668 10.3334 5.16001 10.3334 7.00001C10.3334 8.84001 8.84004 10.3333 7.00004 10.3333Z" fill="#BFBFBF"/>
</svg>
