<svg width="18" height="18" viewBox="0 0 18 18" fill="none" xmlns="http://www.w3.org/2000/svg">
<path d="M1.51278 17C1.51123 16.9999 1.50923 16.9998 1.50679 16.9996C1.49236 16.9986 1.46522 16.996 1.43002 16.9902C1.35489 16.9776 1.27 16.9545 1.19721 16.9181C1.12834 16.8836 1.08989 16.8477 1.06643 16.8125C1.04713 16.7835 1 16.7 1 16.5C1 16.0068 1.27554 14.7637 2.39461 13.6446C3.48436 12.5548 5.46089 11.5 9 11.5C12.5391 11.5 14.5156 12.5548 15.6054 13.6446C16.7245 14.7637 17 16.0068 17 16.5C17 16.7 16.9529 16.7835 16.9336 16.8125C16.9101 16.8477 16.8717 16.8836 16.8028 16.9181C16.73 16.9545 16.6451 16.9776 16.57 16.9902C16.5348 16.996 16.5076 16.9986 16.4932 16.9996C16.4908 16.9998 16.4888 16.9999 16.4872 17H1.51278ZM11.4749 6.97487C10.8185 7.63125 9.92826 8 9 8C8.07174 8 7.1815 7.63125 6.52513 6.97487C5.86875 6.3185 5.5 5.42826 5.5 4.5C5.5 3.57174 5.86875 2.6815 6.52513 2.02513C7.1815 1.36875 8.07174 1 9 1C9.92826 1 10.8185 1.36875 11.4749 2.02513C12.1313 2.6815 12.5 3.57174 12.5 4.5C12.5 5.42826 12.1313 6.3185 11.4749 6.97487Z" stroke="black" stroke-width="2"/>
</svg>
