<svg width="120" height="120" viewBox="0 0 120 120" fill="none" xmlns="http://www.w3.org/2000/svg">
<rect width="120" height="120" fill="white"/>
<rect x="33.4907" y="10.9854" width="67.0361" height="90.241" rx="2" transform="rotate(7.49556 33.4907 10.9854)" fill="#00BAAE"/>
<rect x="16.6724" y="25.3237" width="67.0361" height="90.241" rx="2" transform="rotate(-15.1806 16.6724 25.3237)" fill="#CEF4F1"/>
<rect x="25.2112" y="13.0281" width="69.899" height="92.8346" rx="2" fill="#45CCC3"/>
<path fill-rule="evenodd" clip-rule="evenodd" d="M57.4271 105.863H27.2109C26.1064 105.863 25.2109 104.967 25.2109 103.863V26.2585C29.5394 24.794 34.177 24 39 24C62.7482 24 82 43.2518 82 67C82 84.1539 71.9554 98.9617 57.4271 105.863Z" fill="url(#paint0_linear_2152_1185)"/>
<rect x="36.1328" y="21.7655" width="21.8434" height="21.8434" rx="2" fill="white" fill-opacity="0.7"/>
<rect x="61.2527" y="21.7655" width="24.0278" height="3.27652" rx="1.5" fill="white" fill-opacity="0.7"/>
<rect x="61.2527" y="30.5029" width="24.0278" height="13.1061" rx="1.5" fill="white" fill-opacity="0.7"/>
<rect x="36" y="53" width="49.1477" height="2.18434" rx="1" fill="white"/>
<rect x="36" y="65.1843" width="49.1477" height="2.18434" rx="1" fill="white"/>
<rect x="36" y="77.3687" width="49.1477" height="2.18434" rx="1" fill="white"/>
<rect x="36" y="89.553" width="28" height="2" rx="1" fill="white"/>
<path d="M78.7258 52.3387L84.6785 49.866L104.076 96.5619C104.288 97.0719 104.046 97.6572 103.536 97.869L99.4302 99.5745C98.9202 99.7864 98.335 99.5446 98.1231 99.0346L78.7258 52.3387Z" fill="#FFC73C"/>
<path d="M76.4103 38.8721C76.3742 38.6624 76.6473 38.5489 76.7705 38.7225L84.6775 49.8643L78.7249 52.337L76.4103 38.8721Z" fill="#FFF2B8"/>
<path fill-rule="evenodd" clip-rule="evenodd" d="M76.7703 38.7225C76.6471 38.5489 76.374 38.6623 76.4101 38.8721L76.9329 41.9136L78.5563 41.2392L76.7703 38.7225Z" fill="#333333"/>
<rect x="95.5393" y="92.8148" width="6.44578" height="2.57831" transform="rotate(-22.5578 95.5393 92.8148)" fill="#03968D"/>
<rect x="33.9314" y="13.7972" width="4.37148" height="7.59438" rx="2.18574" stroke="#FFC73C"/>
<path fill-rule="evenodd" clip-rule="evenodd" d="M37.8029 13V11.6857C37.8029 10.7547 37.0481 10 36.1171 10C35.1861 10 34.4314 10.7547 34.4314 11.6857V19.2058C34.4314 20.0975 35.1236 20.8274 36 20.8876V21H38.1157C37.624 21.5473 36.9108 21.8916 36.1171 21.8916C34.6338 21.8916 33.4314 20.6891 33.4314 19.2058V11.6857C33.4314 10.2024 34.6338 9 36.1171 9C37.6004 9 38.8029 10.2024 38.8029 11.6857V13H37.8029Z" fill="#FFC73C"/>
<rect x="22.9368" y="63.8409" width="16.759" height="25.1385" rx="3" transform="rotate(27.0211 22.9368 63.8409)" fill="#FFF2B8"/>
<path d="M19.1299 71.3057L34.0595 78.9196L27.8085 91.1767C27.0557 92.6527 25.249 93.239 23.773 92.4863L14.1884 87.5982C12.7125 86.8455 12.1261 85.0387 12.8789 83.5627L19.1299 71.3057Z" fill="#FFC73C"/>
<path fill-rule="evenodd" clip-rule="evenodd" d="M19.9461 90.5344L14.1886 87.5982C12.7126 86.8454 12.1263 85.0387 12.8791 83.5627L17.2222 75.0466C19.5727 77.6948 21.0001 81.1807 21.0001 85.0001C21.0001 86.9547 20.6263 88.822 19.9461 90.5344Z" fill="#FFE266"/>
<circle cx="47" cy="33" r="7" fill="#FFD72C"/>
<circle cx="44.9583" cy="31.5416" r="0.875" fill="white"/>
<circle cx="49.0417" cy="31.5416" r="0.875" fill="white"/>
<path fill-rule="evenodd" clip-rule="evenodd" d="M44.5412 33.5834C43.9889 33.5834 43.5268 34.0402 43.6823 34.5702C44.1083 36.0227 45.4509 37.0834 47.0412 37.0834C48.6315 37.0834 49.9741 36.0227 50.4002 34.5702C50.5556 34.0402 50.0935 33.5834 49.5412 33.5834L44.5412 33.5834Z" fill="white"/>
<defs>
<linearGradient id="paint0_linear_2152_1185" x1="58" y1="49" x2="24.814" y2="103.888" gradientUnits="userSpaceOnUse">
<stop stop-color="#00BAAE"/>
<stop offset="1" stop-color="#C6F2EF"/>
</linearGradient>
</defs>
</svg>
