<svg width="154" height="218" viewBox="0 0 154 218" fill="none" xmlns="http://www.w3.org/2000/svg">
<rect width="154" height="218" rx="12" fill="white"/>
<rect x="0.5" y="0.5" width="153" height="217" rx="11.5" stroke="#B3B3B3"/>
<path d="M40.6035 111.072C39.7741 112.43 38.7396 113.109 37.5 113.109C36.7799 113.109 36.2057 112.895 35.7773 112.467C35.3581 112.029 35.1484 111.451 35.1484 110.73C35.1484 110.566 35.5677 107.495 36.4062 101.516H35.2305L35.3125 101.051H37.1035C38.1517 101.051 39.0404 100.973 39.7695 100.818L38.457 109.979C38.3568 110.644 38.3066 111.036 38.3066 111.154C38.3066 111.637 38.5527 111.879 39.0449 111.879C39.3366 111.879 39.6738 111.615 40.0566 111.086C40.4395 110.548 40.6764 109.938 40.7676 109.254L41.957 101.051H45.1973L43.8301 110.512C43.7754 110.785 43.748 111.072 43.748 111.373C43.748 111.564 43.7936 111.724 43.8848 111.852C43.9759 111.979 44.0898 112.043 44.2266 112.043C44.4727 112.043 44.7142 111.897 44.9512 111.605C45.1973 111.305 45.3932 110.89 45.5391 110.361H46.0176C45.4889 112.23 44.4863 113.164 43.0098 113.164C42.4173 113.164 41.8932 112.982 41.4375 112.617C40.9818 112.253 40.7038 111.738 40.6035 111.072Z" fill="#00BAAE"/>
<path d="M51.3294 102.582C52.1953 101.315 53.1933 100.682 54.3235 100.682C55.0162 100.682 55.5813 100.91 56.0188 101.365C56.4563 101.812 56.6751 102.386 56.6751 103.088C56.6751 103.261 56.3287 105.736 55.636 110.512C55.5813 110.785 55.554 111.072 55.554 111.373C55.554 111.564 55.5996 111.724 55.6907 111.852C55.791 111.979 55.9049 112.043 56.0325 112.043C56.2786 112.043 56.5201 111.897 56.7571 111.605C57.0032 111.305 57.1992 110.89 57.345 110.361H57.8235C57.2949 112.23 56.2968 113.164 54.8294 113.164C54.1458 113.164 53.567 112.941 53.093 112.494C52.6282 112.038 52.3958 111.423 52.3958 110.648C52.3958 110.421 52.7467 107.827 53.4485 102.869C53.4759 102.723 53.4895 102.591 53.4895 102.473C53.4895 102.026 53.2981 101.803 52.9153 101.803C52.5963 101.803 52.2226 102.058 51.7942 102.568C51.3749 103.079 51.1061 103.799 50.9876 104.729L49.8391 113H46.5989L48.2122 101.516H47.0364L47.1184 101.051H48.9231C49.9622 101.051 50.8463 100.973 51.5755 100.818L51.3294 102.582Z" fill="#00BAAE"/>
<path d="M61.0572 113.164C60.3827 113.164 59.8085 112.941 59.3345 112.494C58.8606 112.038 58.6236 111.423 58.6236 110.648C58.6236 110.402 58.6555 110.083 58.7193 109.691L59.8814 101.516H58.7056L58.7877 101.051H60.5923C61.6314 101.051 62.5155 100.973 63.2447 100.818L61.8775 110.512C61.8228 110.785 61.7955 111.072 61.7955 111.373C61.7955 111.564 61.841 111.724 61.9322 111.852C62.0233 111.979 62.1327 112.043 62.2603 112.043C62.5155 112.043 62.7616 111.897 62.9986 111.605C63.2447 111.305 63.4407 110.89 63.5865 110.361H64.065C63.5272 112.23 62.5246 113.164 61.0572 113.164ZM60.1138 97.0996C60.1138 96.5892 60.2916 96.1608 60.647 95.8145C61.0025 95.459 61.4309 95.2812 61.9322 95.2812C62.4335 95.2812 62.8619 95.459 63.2173 95.8145C63.5728 96.1699 63.7505 96.5983 63.7505 97.0996C63.7505 97.6009 63.5728 98.0293 63.2173 98.3848C62.8619 98.7402 62.4335 98.918 61.9322 98.918C61.4309 98.918 61.0025 98.7402 60.647 98.3848C60.2916 98.0293 60.1138 97.6009 60.1138 97.0996Z" fill="#00BAAE"/>
<path d="M72.4464 113.164C71.7719 113.164 71.1977 112.941 70.7238 112.494C70.2498 112.038 70.0128 111.423 70.0128 110.648C70.0128 110.43 70.031 110.188 70.0675 109.924L72.0636 95.8965H70.8878L70.9698 95.418H72.7609C73.7999 95.418 74.684 95.3405 75.4132 95.1855L73.2667 110.512C73.212 110.904 73.1847 111.191 73.1847 111.373C73.1847 111.564 73.2303 111.724 73.3214 111.852C73.4126 111.979 73.5219 112.043 73.6495 112.043C73.9047 112.043 74.1508 111.897 74.3878 111.605C74.6339 111.305 74.8299 110.89 74.9757 110.361H75.4542C74.9165 112.23 73.9139 113.164 72.4464 113.164Z" fill="#00BAAE"/>
<path d="M79.6312 107.258C80.6065 106.948 81.3448 106.383 81.8461 105.562C82.3474 104.742 82.598 103.758 82.598 102.609C82.598 101.68 82.3747 101.215 81.9281 101.215C81.4906 101.215 81.1078 101.447 80.7797 101.912C80.4516 102.368 80.2374 102.956 80.1371 103.676L79.6312 107.258ZM80.1098 113.191C78.9796 113.191 77.9997 112.713 77.1703 111.756C76.35 110.79 75.9398 109.6 75.9398 108.188C75.9398 106.246 76.5733 104.514 77.8402 102.992C79.1163 101.47 80.6111 100.709 82.3246 100.709C83.4092 100.709 84.2523 100.941 84.8539 101.406C85.4555 101.871 85.7562 102.477 85.7562 103.225C85.7562 105.385 83.6872 106.916 79.5492 107.818C79.2484 109.96 79.098 111.154 79.098 111.4C79.098 111.792 79.1937 112.107 79.3852 112.344C79.5857 112.572 79.8546 112.686 80.1918 112.686C82.2426 112.686 83.6508 111.446 84.4164 108.967H84.8676C84.1111 111.783 82.5251 113.191 80.1098 113.191Z" fill="#00BAAE"/>
<path d="M89.6188 113.164C88.9352 113.164 88.3565 112.941 87.8825 112.494C87.4177 112.038 87.1852 111.423 87.1852 110.648C87.1852 110.43 87.5954 107.349 88.4157 101.406H86.9802L87.0622 100.928H88.4704L88.8669 98.1387L92.1891 97.5781L91.7106 100.928H93.1462L93.0641 101.406H91.6559L90.3981 110.512C90.3434 110.785 90.3161 111.072 90.3161 111.373C90.3161 111.564 90.3617 111.724 90.4528 111.852C90.5531 111.979 90.667 112.043 90.7946 112.043C91.0407 112.043 91.2822 111.897 91.5192 111.605C91.7653 111.305 91.9613 110.89 92.1071 110.361H92.5856C92.057 112.23 91.068 113.164 89.6188 113.164Z" fill="#00BAAE"/>
<path d="M96.6123 113.164C95.9287 113.164 95.3499 112.941 94.8759 112.494C94.4111 112.038 94.1787 111.423 94.1787 110.648C94.1787 110.43 94.5888 107.349 95.4091 101.406H93.9736L94.0556 100.928H95.4638L95.8603 98.1387L99.1826 97.5781L98.7041 100.928H100.14L100.058 101.406H98.6494L97.3916 110.512C97.3369 110.785 97.3095 111.072 97.3095 111.373C97.3095 111.564 97.3551 111.724 97.4463 111.852C97.5465 111.979 97.6604 112.043 97.788 112.043C98.0341 112.043 98.2757 111.897 98.5127 111.605C98.7588 111.305 98.9547 110.89 99.1005 110.361H99.5791C99.0504 112.23 98.0615 113.164 96.6123 113.164Z" fill="#00BAAE"/>
<path d="M104.248 107.258C105.224 106.948 105.962 106.383 106.463 105.562C106.964 104.742 107.215 103.758 107.215 102.609C107.215 101.68 106.992 101.215 106.545 101.215C106.108 101.215 105.725 101.447 105.397 101.912C105.069 102.368 104.854 102.956 104.754 103.676L104.248 107.258ZM104.727 113.191C103.597 113.191 102.617 112.713 101.787 111.756C100.967 110.79 100.557 109.6 100.557 108.188C100.557 106.246 101.19 104.514 102.457 102.992C103.733 101.47 105.228 100.709 106.942 100.709C108.026 100.709 108.869 100.941 109.471 101.406C110.073 101.871 110.373 102.477 110.373 103.225C110.373 105.385 108.304 106.916 104.166 107.818C103.865 109.96 103.715 111.154 103.715 111.4C103.715 111.792 103.811 112.107 104.002 112.344C104.203 112.572 104.472 112.686 104.809 112.686C106.86 112.686 108.268 111.446 109.033 108.967H109.485C108.728 111.783 107.142 113.191 104.727 113.191Z" fill="#00BAAE"/>
<path d="M115.89 102.842C116.565 101.493 117.44 100.818 118.515 100.818C119.08 100.818 119.522 100.978 119.841 101.297C120.169 101.616 120.334 102.044 120.334 102.582C120.334 103.147 120.156 103.63 119.8 104.031C119.454 104.432 119.016 104.633 118.488 104.633C118.114 104.633 117.804 104.514 117.558 104.277C117.321 104.031 117.203 103.74 117.203 103.402C117.203 102.819 117.494 102.299 118.078 101.844C118.205 101.743 118.269 101.675 118.269 101.639C118.269 101.502 118.164 101.434 117.955 101.434C117.526 101.434 117.034 101.857 116.478 102.705C115.931 103.553 115.571 104.601 115.398 105.85L114.4 113H111.16L112.773 101.516H111.597L111.679 101.051H113.484C114.505 101.051 115.38 100.973 116.109 100.818L115.835 102.842H115.89Z" fill="#00BAAE"/>
</svg>
