<svg width="120" height="120" viewBox="0 0 120 120" fill="none" xmlns="http://www.w3.org/2000/svg">
<g clip-path="url(#clip0_2152_4615)">
<rect width="120" height="120" fill="white"/>
<rect width="13" height="55" rx="4" transform="matrix(-0.947869 0.318661 0.318661 0.947869 35.6938 52.4712)" fill="#FFC73C"/>
<path fill-rule="evenodd" clip-rule="evenodd" d="M35.2334 54.1065C34.9986 54.1407 34.7635 54.1964 34.5306 54.2747L29.7913 55.868C27.6973 56.5719 26.5705 58.8401 27.2745 60.9341L42.2515 105.484C42.5673 106.423 43.1979 107.168 43.9862 107.64C42.1098 107.913 40.2485 106.816 39.6229 104.955L24.6458 60.4053C23.9418 58.3113 25.0686 56.0431 27.1626 55.3392L31.902 53.7459C33.0566 53.3577 34.2642 53.5262 35.2334 54.1065Z" fill="#FFD72C"/>
<rect width="17" height="39" rx="4" transform="matrix(-0.947869 0.318661 0.318661 0.947869 44.9185 73.6348)" fill="#45CCC3"/>
<path fill-rule="evenodd" clip-rule="evenodd" d="M48.8155 113.47L45.024 114.744C42.93 115.448 40.6619 114.321 39.9579 112.227L30.0794 82.8434C29.3754 80.7495 30.5022 78.4813 32.5962 77.7773L36.3877 76.5027C34.2937 77.2067 33.1669 79.4748 33.8709 81.5688L43.7494 110.953C44.4533 113.047 46.7215 114.174 48.8155 113.47Z" fill="url(#paint0_linear_2152_4615)"/>
<circle r="12" transform="matrix(-0.947869 0.318661 0.318661 0.947869 17.9783 49.9868)" fill="#FFC73C"/>
<path fill-rule="evenodd" clip-rule="evenodd" d="M29.3683 30.3327L59.8906 7.4115L77.7356 60.4921L38.9281 58.7688L38.9117 58.7201C33.9012 59.7344 28.0673 54.8908 25.5616 47.4374C23.0559 39.984 24.7789 32.5999 29.3846 30.3814L29.3683 30.3327Z" fill="#00BAAE"/>
<path fill-rule="evenodd" clip-rule="evenodd" d="M73.2578 47.1737L77.7353 60.4921L38.9278 58.7687L38.9114 58.7201C35.5802 59.3945 31.8851 57.4796 29.046 53.93L66.6046 50.5689C69.32 50.3259 71.6386 49.0396 73.2578 47.1737Z" fill="url(#paint1_linear_2152_4615)"/>
<ellipse rx="11" ry="28" transform="matrix(-0.947869 0.318661 0.318661 0.947869 68.534 34.0456)" fill="url(#paint2_linear_2152_4615)"/>
<path fill-rule="evenodd" clip-rule="evenodd" d="M62.4452 47.6906C60.8326 44.6721 59.3513 41.2498 58.1077 37.5508C56.6171 33.1169 55.639 28.7932 55.1591 24.8653C59.3613 23.9573 64.1985 27.7893 66.2099 33.7721C68.2785 39.9253 66.5906 46.0713 62.4452 47.6906Z" fill="#FFC73C"/>
<path fill-rule="evenodd" clip-rule="evenodd" d="M25.5031 47.2622C25.5222 47.3207 25.5415 47.3791 25.5611 47.4375C25.5808 47.496 25.6007 47.5543 25.6209 47.6125C28.2012 55.0902 34.1355 59.8858 39.1614 58.6645C39.0697 58.7123 38.973 58.7536 38.8719 58.7876L27.4975 62.6115C21.2155 64.7234 13.983 60.0698 11.3431 52.2174C8.70324 44.365 11.6557 36.2874 17.9376 34.1755L29.312 30.3515C29.4131 30.3176 29.515 30.2921 29.617 30.2748C24.8741 32.3378 23.0421 39.7444 25.5031 47.2622Z" fill="#45CCC3"/>
<path fill-rule="evenodd" clip-rule="evenodd" d="M25.5204 47.3134C25.534 47.3547 25.5477 47.3961 25.5616 47.4374C25.5755 47.4787 25.5895 47.5199 25.6036 47.5611C25.6982 47.8372 25.7973 48.1097 25.9008 48.3784L11.6871 53.1568C11.5653 52.8491 11.4506 52.5358 11.3436 52.2173C11.2365 51.8988 11.1386 51.5799 11.0498 51.2611L25.2635 46.4826C25.3433 46.7592 25.4289 47.0362 25.5204 47.3134ZM24.4544 39.3697L10.5452 44.0458C10.6589 43.2595 10.8292 42.4966 11.0532 41.765L24.7602 37.1569C24.6108 37.8635 24.5081 38.6036 24.4544 39.3697ZM31.1335 56.1142C30.5875 55.6414 30.0586 55.1136 29.553 54.5356L15.6437 59.2117C16.2093 59.7695 16.8059 60.2746 17.4264 60.7224L31.1335 56.1142Z" fill="url(#paint3_linear_2152_4615)"/>
<path fill-rule="evenodd" clip-rule="evenodd" d="M64.9386 20.8683C64.6809 20.3921 64.849 19.7973 65.3179 19.5265L94.7708 2.51427C95.2585 2.2326 95.8825 2.40898 96.1505 2.90427L97.0755 4.6137C97.3436 5.10899 97.1499 5.72782 96.6474 5.98199L66.2954 21.3329C65.8122 21.5773 65.2223 21.3927 64.9646 20.9165L64.9386 20.8683ZM69.6623 31.538C69.5077 31.0176 69.7966 30.469 70.3131 30.3019L107.6 18.2379C108.135 18.065 108.707 18.3662 108.867 18.9047L109.422 20.7749C109.582 21.3134 109.267 21.878 108.725 22.0248L70.8958 32.2646C70.3719 32.4064 69.8304 32.1043 69.6759 31.584L69.6623 31.538ZM70.9855 41.4625C70.4445 41.4851 70.0197 41.9342 70.0273 42.4756L70.0281 42.5304C70.0356 43.0718 70.4728 43.5088 71.0142 43.5163L105.024 43.9855C105.587 43.9932 106.046 43.5347 106.038 42.9716L106.011 41.0281C106.003 40.465 105.532 40.0194 104.969 40.0429L70.9855 41.4625Z" fill="url(#paint4_linear_2152_4615)"/>
<path d="M96.1841 53.2748C96.3391 53.3484 96.2901 53.5806 96.1186 53.5854L95.4743 53.6035C94.1962 53.6394 93.0084 54.2712 92.2642 55.3111C92.2014 55.3988 92.0642 55.3699 92.0422 55.2643C91.7809 54.0126 90.9491 52.9552 89.7942 52.4065L89.212 52.1299C89.057 52.0563 89.1059 51.8241 89.2774 51.8193L89.9217 51.8012C91.1999 51.7653 92.3877 51.1335 93.1318 50.0937C93.1946 50.0059 93.3318 50.0348 93.3539 50.1405C93.6151 51.3922 94.4469 52.4496 95.6019 52.9982L96.1841 53.2748Z" fill="#FFC73C"/>
<path d="M106.785 7.57401C106.942 7.50377 107.087 7.6916 106.979 7.82527L106.575 8.32749C105.774 9.3238 105.485 10.6377 105.794 11.8785C105.82 11.9832 105.709 12.0689 105.614 12.0172C104.492 11.4044 103.147 11.3519 101.981 11.8754L101.393 12.1393C101.236 12.2095 101.091 12.0217 101.199 11.888L101.603 11.3858C102.404 10.3895 102.693 9.07558 102.384 7.83481C102.358 7.73009 102.469 7.6444 102.564 7.69612C103.686 8.30889 105.031 8.36134 106.197 7.83787L106.785 7.57401Z" fill="#FFC73C"/>
<path d="M84.1064 31.7334C84.2726 31.691 84.3834 31.9009 84.2545 32.0142L83.7705 32.4398C82.8103 33.2842 82.3004 34.5292 82.3924 35.8045C82.4002 35.9122 82.2762 35.9776 82.1918 35.9104C81.1909 35.1146 79.8754 34.8328 78.6364 35.1488L78.0119 35.3081C77.8456 35.3505 77.7349 35.1406 77.8637 35.0273L78.3477 34.6017C79.308 33.7573 79.8179 32.5123 79.7258 31.2369C79.718 31.1293 79.842 31.0639 79.9265 31.131C80.9273 31.9269 82.2428 32.2087 83.4818 31.8927L84.1064 31.7334Z" fill="#FFD72C"/>
<path d="M67.9086 5.0789C67.9742 4.92035 68.2086 4.95724 68.2222 5.12825L68.2735 5.77076C68.3753 7.04537 69.0676 8.19897 70.1444 8.88852C70.2353 8.94671 70.2135 9.08521 70.1091 9.11268C68.8726 9.43816 67.8595 10.3234 67.3711 11.5051L67.1249 12.1008C67.0594 12.2594 66.825 12.2225 66.8113 12.0515L66.76 11.409C66.6582 10.1344 65.966 8.98075 64.8892 8.29121C64.7983 8.23301 64.8201 8.09452 64.9245 8.06705C66.161 7.74156 67.1741 6.85633 67.6625 5.67459L67.9086 5.0789Z" fill="#FFC73C"/>
</g>
<defs>
<linearGradient id="paint0_linear_2152_4615" x1="38.3321" y1="94.839" x2="26.3725" y2="98.454" gradientUnits="userSpaceOnUse">
<stop stop-color="#00BAAE"/>
<stop offset="1" stop-color="#C6F2EF"/>
</linearGradient>
<linearGradient id="paint1_linear_2152_4615" x1="49.9751" y1="60.6177" x2="50.5195" y2="27.3005" gradientUnits="userSpaceOnUse">
<stop stop-color="#00BAAE"/>
<stop offset="1" stop-color="#C6F2EF"/>
</linearGradient>
<linearGradient id="paint2_linear_2152_4615" x1="-1.28451e-07" y1="25.5" x2="23.6283" y2="25.3229" gradientUnits="userSpaceOnUse">
<stop stop-color="#00BAAE"/>
<stop offset="1" stop-color="#C6F2EF"/>
</linearGradient>
<linearGradient id="paint3_linear_2152_4615" x1="26.0002" y1="47.5" x2="9.00024" y2="52.5" gradientUnits="userSpaceOnUse">
<stop stop-color="#FFF2B8"/>
<stop offset="1" stop-color="#FFF2B8" stop-opacity="0"/>
</linearGradient>
<linearGradient id="paint4_linear_2152_4615" x1="67.6816" y1="31.5" x2="100.682" y2="23" gradientUnits="userSpaceOnUse">
<stop stop-color="#FFD72C"/>
<stop offset="1" stop-color="#FFF2B8"/>
</linearGradient>
<clipPath id="clip0_2152_4615">
<rect width="120" height="120" fill="white"/>
</clipPath>
</defs>
</svg>
