<svg width="154" height="218" viewBox="0 0 154 218" fill="none" xmlns="http://www.w3.org/2000/svg">
<rect width="154" height="218" rx="12" fill="white"/>
<g clip-path="url(#clip0_1_403)">
<rect width="120" height="120" transform="translate(17 49)" fill="white"/>
<rect width="13" height="55" rx="4" transform="matrix(-0.947869 0.318661 0.318661 0.947869 52.6936 101.471)" fill="#FFC73C"/>
<path fill-rule="evenodd" clip-rule="evenodd" d="M52.2335 103.107C51.9987 103.141 51.7637 103.196 51.5308 103.275L46.7915 104.868C44.6975 105.572 43.5707 107.84 44.2746 109.934L59.2517 154.484C59.5675 155.423 60.198 156.168 60.9864 156.64C59.11 156.913 57.2487 155.816 56.623 153.955L41.646 109.405C40.942 107.311 42.0688 105.043 44.1628 104.339L48.9021 102.746C50.0568 102.358 51.2644 102.526 52.2335 103.107Z" fill="#FFD72C"/>
<rect width="17" height="39" rx="4" transform="matrix(-0.947869 0.318661 0.318661 0.947869 61.9185 122.635)" fill="#45CCC3"/>
<path fill-rule="evenodd" clip-rule="evenodd" d="M65.8154 162.47L62.0239 163.744C59.93 164.448 57.6618 163.321 56.9578 161.227L47.0793 131.844C46.3754 129.75 47.5022 127.481 49.5962 126.777L53.3876 125.503C51.2937 126.207 50.1668 128.475 50.8708 130.569L60.7493 159.953C61.4533 162.047 63.7214 163.174 65.8154 162.47Z" fill="url(#paint0_linear_1_403)"/>
<circle r="12" transform="matrix(-0.947869 0.318661 0.318661 0.947869 34.9783 98.9868)" fill="#FFC73C"/>
<path fill-rule="evenodd" clip-rule="evenodd" d="M46.368 79.3327L76.8904 56.4115L94.7354 109.492L55.9278 107.769L55.9115 107.72C50.901 108.734 45.0671 103.891 42.5614 96.4375C40.0556 88.984 41.7787 81.5999 46.3844 79.3814L46.368 79.3327Z" fill="#00BAAE"/>
<path fill-rule="evenodd" clip-rule="evenodd" d="M90.2579 96.1737L94.7354 109.492L55.9279 107.769L55.9115 107.72C52.5803 108.395 48.8852 106.48 46.0461 102.93L83.6047 99.5689C86.3201 99.3259 88.6387 98.0397 90.2579 96.1737Z" fill="url(#paint1_linear_1_403)"/>
<ellipse rx="11" ry="28" transform="matrix(-0.947869 0.318661 0.318661 0.947869 85.534 83.0456)" fill="url(#paint2_linear_1_403)"/>
<path fill-rule="evenodd" clip-rule="evenodd" d="M79.445 96.6906C77.8324 93.6721 76.351 90.2498 75.1075 86.5509C73.6168 82.1169 72.6387 77.7933 72.1589 73.8654C76.361 72.9573 81.1983 76.7893 83.2096 82.7721C85.2783 88.9254 83.5904 95.0713 79.445 96.6906Z" fill="#FFC73C"/>
<path fill-rule="evenodd" clip-rule="evenodd" d="M42.5033 96.2622C42.5223 96.3206 42.5417 96.3791 42.5613 96.4375C42.581 96.496 42.6009 96.5543 42.6211 96.6125C45.2014 104.09 51.1357 108.886 56.1616 107.664C56.0698 107.712 55.9732 107.754 55.872 107.788L44.4976 111.612C38.2157 113.723 30.9831 109.07 28.3433 101.217C25.7034 93.365 28.6559 85.2873 34.9378 83.1754L46.3122 79.3515C46.4133 79.3175 46.5152 79.2921 46.6171 79.2748C41.8742 81.3377 40.0422 88.7444 42.5033 96.2622Z" fill="#45CCC3"/>
<path fill-rule="evenodd" clip-rule="evenodd" d="M42.5201 96.3134C42.5337 96.3548 42.5475 96.3961 42.5613 96.4374C42.5752 96.4787 42.5893 96.52 42.6034 96.5611C42.698 96.8372 42.7971 97.1097 42.9006 97.3784L28.6869 102.157C28.565 101.849 28.4504 101.536 28.3433 101.217C28.2362 100.899 28.1384 100.58 28.0495 100.261L42.2632 95.4827C42.3431 95.7593 42.4287 96.0363 42.5201 96.3134ZM41.4541 88.3697L27.545 93.0458C27.6587 92.2596 27.829 91.4967 28.0529 90.765L41.76 86.1569C41.6105 86.8635 41.5079 87.6036 41.4541 88.3697ZM48.1332 105.114C47.5873 104.641 47.0583 104.114 46.5527 103.536L32.6435 108.212C33.2091 108.77 33.8056 109.275 34.4261 109.722L48.1332 105.114Z" fill="url(#paint3_linear_1_403)"/>
<path fill-rule="evenodd" clip-rule="evenodd" d="M81.9388 69.8683C81.6811 69.3921 81.8492 68.7973 82.3181 68.5265L111.771 51.5143C112.259 51.2326 112.883 51.409 113.151 51.9043L114.076 53.6137C114.344 54.109 114.15 54.7278 113.648 54.982L83.2956 70.3329C82.8125 70.5773 82.2225 70.3927 81.9648 69.9165L81.9388 69.8683ZM86.6625 80.538C86.508 80.0176 86.7968 79.469 87.3133 79.3019L124.6 67.2379C125.135 67.065 125.707 67.3662 125.867 67.9047L126.422 69.7749C126.582 70.3134 126.267 70.878 125.725 71.0248L87.896 81.2646C87.3721 81.4064 86.8306 81.1043 86.6761 80.584L86.6625 80.538ZM87.9857 90.4625C87.4447 90.4851 87.0199 90.9342 87.0275 91.4756L87.0283 91.5304C87.0359 92.0718 87.473 92.5088 88.0144 92.5163L122.024 92.9855C122.587 92.9932 123.046 92.5347 123.038 91.9716L123.011 90.0281C123.003 89.465 122.532 89.0194 121.969 89.0429L87.9857 90.4625Z" fill="url(#paint4_linear_1_403)"/>
<path d="M113.184 102.275C113.339 102.348 113.29 102.581 113.119 102.585L112.474 102.604C111.196 102.639 110.008 103.271 109.264 104.311V104.311C109.201 104.399 109.064 104.37 109.042 104.264V104.264C108.781 103.013 107.949 101.955 106.794 101.407L106.212 101.13C106.057 101.056 106.106 100.824 106.277 100.819L106.922 100.801C108.2 100.765 109.388 100.133 110.132 99.0937V99.0937C110.195 99.0059 110.332 99.0348 110.354 99.1405V99.1405C110.615 100.392 111.447 101.45 112.602 101.998L113.184 102.275Z" fill="#FFC73C"/>
<path d="M123.785 56.574C123.942 56.5038 124.087 56.6916 123.979 56.8253L123.575 57.3275C122.774 58.3238 122.485 59.6377 122.794 60.8785V60.8785C122.82 60.9832 122.709 61.0689 122.614 61.0172V61.0172C121.492 60.4044 120.147 60.3519 118.981 60.8754L118.393 61.1393C118.236 61.2095 118.091 61.0217 118.199 60.888L118.603 60.3858C119.404 59.3895 119.693 58.0756 119.384 56.8348V56.8348C119.358 56.7301 119.469 56.6444 119.564 56.6961V56.6961C120.686 57.3089 122.031 57.3613 123.197 56.8379L123.785 56.574Z" fill="#FFC73C"/>
<path d="M101.107 80.7334C101.273 80.691 101.384 80.9009 101.255 81.0142L100.771 81.4398C99.8105 82.2842 99.3006 83.5292 99.3927 84.8045V84.8045C99.4004 84.9122 99.2764 84.9776 99.192 84.9104V84.9104C98.1911 84.1146 96.8756 83.8328 95.6366 84.1488L95.0121 84.3081C94.8458 84.3505 94.7351 84.1406 94.8639 84.0273L95.348 83.6017C96.3082 82.7573 96.8181 81.5123 96.726 80.2369V80.2369C96.7182 80.1293 96.8422 80.0639 96.9267 80.131V80.131C97.9275 80.9269 99.243 81.2087 100.482 80.8927L101.107 80.7334Z" fill="#FFD72C"/>
<path d="M84.9086 54.0789C84.9741 53.9203 85.2085 53.9572 85.2222 54.1283L85.2735 54.7708C85.3753 56.0454 86.0675 57.199 87.1444 57.8885V57.8885C87.2352 57.9467 87.2135 58.0852 87.1091 58.1127V58.1127C85.8725 58.4382 84.8594 59.3234 84.3711 60.5051L84.1249 61.1008C84.0594 61.2594 83.825 61.2225 83.8113 61.0515L83.76 60.409C83.6582 59.1344 82.966 57.9808 81.8892 57.2912V57.2912C81.7983 57.233 81.8201 57.0945 81.9244 57.067V57.067C83.161 56.7416 84.1741 55.8563 84.6624 54.6746L84.9086 54.0789Z" fill="#FFC73C"/>
</g>
<defs>
<linearGradient id="paint0_linear_1_403" x1="55.3321" y1="143.839" x2="43.3724" y2="147.454" gradientUnits="userSpaceOnUse">
<stop stop-color="#00BAAE"/>
<stop offset="1" stop-color="#C6F2EF"/>
</linearGradient>
<linearGradient id="paint1_linear_1_403" x1="66.9752" y1="109.618" x2="67.5196" y2="76.3006" gradientUnits="userSpaceOnUse">
<stop stop-color="#00BAAE"/>
<stop offset="1" stop-color="#C6F2EF"/>
</linearGradient>
<linearGradient id="paint2_linear_1_403" x1="-1.28451e-07" y1="25.5" x2="23.6283" y2="25.3229" gradientUnits="userSpaceOnUse">
<stop stop-color="#00BAAE"/>
<stop offset="1" stop-color="#C6F2EF"/>
</linearGradient>
<linearGradient id="paint3_linear_1_403" x1="43" y1="96.5" x2="26" y2="101.5" gradientUnits="userSpaceOnUse">
<stop stop-color="#FFF2B8"/>
<stop offset="1" stop-color="#FFF2B8" stop-opacity="0"/>
</linearGradient>
<linearGradient id="paint4_linear_1_403" x1="84.6819" y1="80.5" x2="117.682" y2="72" gradientUnits="userSpaceOnUse">
<stop stop-color="#FFD72C"/>
<stop offset="1" stop-color="#FFF2B8"/>
</linearGradient>
<clipPath id="clip0_1_403">
<rect width="120" height="120" fill="white" transform="translate(17 49)"/>
</clipPath>
</defs>
</svg>
