<svg width="154" height="218" viewBox="0 0 154 218" fill="none" xmlns="http://www.w3.org/2000/svg">
<rect width="154" height="218" rx="12" fill="white"/>
<rect width="120" height="120" transform="translate(17 49)" fill="white"/>
<path d="M36.8208 105.836H111.104L95.776 115.269H21.4924L36.8208 105.836Z" fill="#636363"/>
<path d="M36.8208 81C36.8208 77.134 39.9548 74 43.8208 74H109.104C110.209 74 111.104 74.8954 111.104 76V105.836H36.8208V81Z" fill="#CEF4F1"/>
<path d="M32.5103 75.4368C35.3653 74.4852 38.3551 74 41.3646 74H108.746L101.672 76.3582H29.7462L32.5103 75.4368Z" fill="#45CCC3"/>
<path d="M27.388 78.3582C27.388 77.2536 28.2834 76.3582 29.388 76.3582H101.672V85.1493C101.672 86.8061 100.328 88.1493 98.6715 88.1493H30.388C28.7311 88.1493 27.388 86.8061 27.388 85.1493V78.3582Z" fill="#03968D"/>
<path fill-rule="evenodd" clip-rule="evenodd" d="M88.7013 136.493C99.7717 136.493 108.746 127.518 108.746 116.448C108.746 105.377 99.7717 96.403 88.7013 96.403C77.6309 96.403 68.6565 105.377 68.6565 116.448C68.6565 127.518 77.6309 136.493 88.7013 136.493ZM88.7013 124.701C93.2597 124.701 96.955 121.006 96.955 116.448C96.955 111.889 93.2597 108.194 88.7013 108.194C84.1429 108.194 80.4476 111.889 80.4476 116.448C80.4476 121.006 84.1429 124.701 88.7013 124.701Z" fill="#333333"/>
<path fill-rule="evenodd" clip-rule="evenodd" d="M86.3432 135.313C97.4136 135.313 106.388 126.339 106.388 115.269C106.388 104.198 97.4136 95.2239 86.3432 95.2239C75.2728 95.2239 66.2984 104.198 66.2984 115.269C66.2984 126.339 75.2728 135.313 86.3432 135.313ZM86.3431 123.522C90.9015 123.522 94.5968 119.827 94.5968 115.269C94.5968 110.71 90.9015 107.015 86.3431 107.015C81.7847 107.015 78.0894 110.71 78.0894 115.269C78.0894 119.827 81.7847 123.522 86.3431 123.522Z" fill="#FFC73C"/>
<rect x="99.218" y="108.172" width="1.1791" height="4.71642" rx="0.589552" transform="rotate(25.7669 99.218 108.172)" fill="#FFD72C"/>
<rect x="89.1458" y="126.268" width="1.1791" height="4.71642" rx="0.589552" transform="rotate(-56.4123 89.1458 126.268)" fill="#FFC73C"/>
<rect x="73.9611" y="125.874" width="1.1791" height="4.71642" rx="0.589552" transform="rotate(-121.507 73.9611 125.874)" fill="#FFC73C"/>
<rect x="73.4443" y="105.466" width="1.1791" height="4.71642" rx="0.589552" transform="rotate(-53.5713 73.4443 105.466)" fill="#FFD72C"/>
<rect x="87.2044" y="99.7561" width="1.1791" height="3.03788" rx="0.589552" transform="rotate(37.9136 87.2044 99.7561)" fill="#FFF2B8"/>
<rect x="99.9466" y="123.561" width="1.1791" height="3.03788" rx="0.589552" transform="rotate(99.0666 99.9466 123.561)" fill="#FFF2B8"/>
<rect x="80.0273" y="128.647" width="1.1791" height="3.03788" rx="0.589552" transform="rotate(33.4323 80.0273 128.647)" fill="#FFF2B8"/>
<rect x="72.3415" y="113.271" width="1.1791" height="3.03788" rx="0.589552" transform="rotate(154.953 72.3415 113.271)" fill="#FFF2B8"/>
<rect x="94.5968" y="102.299" width="1.1791" height="1.1791" rx="0.589552" fill="white"/>
<rect x="74.5521" y="116.448" width="1.1791" height="1.1791" rx="0.589552" fill="white"/>
<rect x="79.2685" y="99.9403" width="1.1791" height="1.1791" rx="0.589552" fill="white"/>
<rect x="86.3431" y="129.418" width="1.1791" height="1.1791" rx="0.589552" fill="white"/>
<rect x="101.671" y="117.627" width="1.1791" height="1.1791" rx="0.589552" fill="white"/>
<path fill-rule="evenodd" clip-rule="evenodd" d="M59.2239 144.746C70.2943 144.746 79.2686 136.798 79.2686 126.992C79.2686 117.187 70.2943 109.238 59.2239 109.238C48.1534 109.238 39.1791 117.187 39.1791 126.992C39.1791 136.798 48.1534 144.746 59.2239 144.746ZM59.2238 134.303C63.7822 134.303 67.4775 131.03 67.4775 126.992C67.4775 122.955 63.7822 119.682 59.2238 119.682C54.6654 119.682 50.97 122.955 50.97 126.992C50.97 131.03 54.6654 134.303 59.2238 134.303Z" fill="#333333"/>
<path fill-rule="evenodd" clip-rule="evenodd" d="M56.8656 143.702C67.936 143.702 76.9103 135.753 76.9103 125.948C76.9103 116.143 67.936 108.194 56.8656 108.194C45.7951 108.194 36.8208 116.143 36.8208 125.948C36.8208 135.753 45.7951 143.702 56.8656 143.702ZM56.8657 133.258C61.4241 133.258 65.1194 129.985 65.1194 125.948C65.1194 121.91 61.4241 118.637 56.8657 118.637C52.3072 118.637 48.6119 121.91 48.6119 125.948C48.6119 129.985 52.3072 133.258 56.8657 133.258Z" fill="#FFC73C"/>
<rect width="1.15484" height="4.28446" rx="0.577422" transform="matrix(0.919488 0.393118 -0.478538 0.878067 69.7405 119.663)" fill="#FFC73C"/>
<rect width="1.08737" height="4.55823" rx="0.543683" transform="matrix(0.599886 -0.800086 0.861951 0.506992 59.6683 135.69)" fill="#FFC73C"/>
<rect width="1.08282" height="4.57552" rx="0.541409" transform="matrix(-0.569067 -0.822291 0.878835 -0.477125 44.4836 135.341)" fill="#FFC73C"/>
<rect width="1.09376" height="4.53367" rx="0.546882" transform="matrix(0.640155 -0.768246 0.837029 0.547158 43.9669 117.265)" fill="#FFC73C"/>
<rect width="1.13011" height="2.82679" rx="0.565057" transform="matrix(0.823139 0.56784 -0.660356 0.750953 57.727 112.208)" fill="#FFF2B8"/>
<rect width="1.04791" height="3.02974" rx="0.523953" transform="matrix(-0.177312 0.984155 -0.990159 -0.139948 70.4691 133.293)" fill="#FFF2B8"/>
<rect width="1.13989" height="2.80063" rx="0.569943" transform="matrix(0.863251 0.504775 -0.597623 0.801777 50.5499 137.797)" fill="#FFF2B8"/>
<rect width="1.15611" height="2.75613" rx="0.578054" transform="matrix(-0.923983 0.382432 -0.466634 -0.88445 42.8641 124.179)" fill="#FFF2B8"/>
<rect x="65.1194" y="114.46" width="1.1791" height="1.04435" rx="0.522175" fill="white"/>
<rect x="45.0746" y="126.992" width="1.1791" height="1.04435" rx="0.522175" fill="white"/>
<rect x="49.791" y="112.371" width="1.1791" height="1.04435" rx="0.522175" fill="white"/>
<rect x="56.8657" y="138.48" width="1.1791" height="1.04435" rx="0.522175" fill="white"/>
<rect x="72.194" y="128.037" width="1.1791" height="1.04435" rx="0.522175" fill="white"/>
<path fill-rule="evenodd" clip-rule="evenodd" d="M50.9701 130.597C62.0405 130.597 71.0148 121.623 71.0148 110.552C71.0148 99.4818 62.0405 90.5075 50.9701 90.5075C39.8996 90.5075 30.9253 99.4818 30.9253 110.552C30.9253 121.623 39.8996 130.597 50.9701 130.597ZM50.9701 118.806C55.5286 118.806 59.2239 115.111 59.2239 110.552C59.2239 105.994 55.5286 102.299 50.9701 102.299C46.4117 102.299 42.7164 105.994 42.7164 110.552C42.7164 115.111 46.4117 118.806 50.9701 118.806Z" fill="#333333"/>
<path fill-rule="evenodd" clip-rule="evenodd" d="M48.6118 129.418C59.6823 129.418 68.6566 120.444 68.6566 109.373C68.6566 98.3027 59.6823 89.3284 48.6118 89.3284C37.5414 89.3284 28.5671 98.3027 28.5671 109.373C28.5671 120.444 37.5414 129.418 48.6118 129.418ZM48.6119 117.627C53.1703 117.627 56.8656 113.932 56.8656 109.373C56.8656 104.815 53.1703 101.119 48.6119 101.119C44.0535 101.119 40.3581 104.815 40.3581 109.373C40.3581 113.932 44.0535 117.627 48.6119 117.627Z" fill="#FFE266"/>
<rect x="61.4867" y="102.277" width="1.1791" height="4.71642" rx="0.589552" transform="rotate(25.7669 61.4867 102.277)" fill="#FFC73C"/>
<rect x="51.4145" y="120.373" width="1.1791" height="4.71642" rx="0.589552" transform="rotate(-56.4123 51.4145 120.373)" fill="#FFC73C"/>
<rect x="36.2298" y="119.979" width="1.1791" height="4.71642" rx="0.589552" transform="rotate(-121.507 36.2298 119.979)" fill="#FFC73C"/>
<rect x="35.7131" y="99.5702" width="1.1791" height="4.71642" rx="0.589552" transform="rotate(-53.5713 35.7131 99.5702)" fill="#FFC73C"/>
<rect x="49.4732" y="93.8605" width="1.1791" height="3.03788" rx="0.589552" transform="rotate(37.9136 49.4732 93.8605)" fill="#FFF2B8"/>
<rect x="62.2153" y="117.666" width="1.1791" height="3.03788" rx="0.589552" transform="rotate(99.0666 62.2153 117.666)" fill="#FFF2B8"/>
<rect x="42.2961" y="122.751" width="1.1791" height="3.03788" rx="0.589552" transform="rotate(33.4323 42.2961 122.751)" fill="#FFF2B8"/>
<rect x="34.6103" y="107.376" width="1.1791" height="3.03788" rx="0.589552" transform="rotate(154.953 34.6103 107.376)" fill="#FFF2B8"/>
<rect x="56.8656" y="96.403" width="1.1791" height="1.1791" rx="0.589552" fill="white"/>
<rect x="36.8208" y="110.552" width="1.1791" height="1.1791" rx="0.589552" fill="white"/>
<rect x="41.5372" y="94.0448" width="1.1791" height="1.1791" rx="0.589552" fill="white"/>
<rect x="48.6119" y="123.522" width="1.1791" height="1.1791" rx="0.589552" fill="white"/>
<rect x="63.9402" y="111.731" width="1.1791" height="1.1791" rx="0.589552" fill="white"/>
<path d="M93.4178 116.448L111.104 105.836V128.782C111.104 132.126 109.433 135.248 106.651 137.103L93.4178 145.925V116.448Z" fill="#45CCC3"/>
<path d="M21.4924 115.269H95.776V142.104C95.776 144.866 93.5374 147.104 90.776 147.104H26.4924C23.731 147.104 21.4924 144.866 21.4924 142.104V115.269Z" fill="#45CCC3"/>
<path fill-rule="evenodd" clip-rule="evenodd" d="M39.5849 147.104C38.4131 139.544 39.7161 131.548 43.8392 124.407C45.8954 120.845 48.4864 117.785 51.4521 115.269H95.776V142.104C95.776 144.866 93.5374 147.104 90.776 147.104H39.5849Z" fill="url(#paint0_linear_1_213)"/>
<path d="M98.1344 108.194H129.97L126.578 151.157C126.496 152.198 125.628 153 124.585 153H103.52C102.477 153 101.608 152.198 101.526 151.157L98.1344 108.194Z" fill="#FFF2B8"/>
<path fill-rule="evenodd" clip-rule="evenodd" d="M118.689 153H124.585C125.628 153 126.496 152.198 126.578 151.157L129.97 108.194H124.075L120.683 151.157C120.601 152.198 119.733 153 118.689 153Z" fill="#FFE266"/>
<rect x="93.418" y="103.478" width="40.0896" height="4.71642" rx="1" fill="#4D4D4D"/>
<path d="M100.285 95.9492C100.408 95.5199 100.8 95.2239 101.247 95.2239H125.679C126.125 95.2239 126.517 95.5199 126.64 95.9492L128.791 103.478H98.1344L100.285 95.9492Z" fill="#333333"/>
<path d="M107 123.6C107 123.122 107.086 122.648 107.252 122.207C107.419 121.766 107.663 121.366 107.97 121.031C108.277 120.696 108.642 120.432 109.042 120.255C109.442 120.078 109.869 119.992 110.3 120.001C110.809 119.998 111.314 120.115 111.779 120.345C112.244 120.575 112.661 120.912 113 121.334C113.339 120.912 113.756 120.575 114.221 120.345C114.686 120.115 115.191 119.998 115.7 120.001C116.131 119.992 116.558 120.078 116.958 120.255C117.358 120.432 117.723 120.696 118.03 121.031C118.337 121.366 118.581 121.766 118.748 122.207C118.914 122.648 119 123.122 119 123.6C119 126.461 116.543 128.761 114.448 130.659C113.637 131.394 112.366 131.391 111.556 130.655C109.462 128.752 107 126.465 107 123.6Z" fill="#FFC73C"/>
<defs>
<linearGradient id="paint0_linear_1_213" x1="92.2387" y1="135.313" x2="39.319" y2="125.151" gradientUnits="userSpaceOnUse">
<stop stop-color="#00BAAE"/>
<stop offset="1" stop-color="#C6F2EF"/>
</linearGradient>
</defs>
</svg>
